<svg width="783" height="834" viewBox="0 0 783 834" fill="none" xmlns="http://www.w3.org/2000/svg">
<g opacity="0.09" filter="url(#filter0_d_16_4011)">
<path d="M391.302 776.275C605.241 776.275 778.673 602.648 778.673 388.467C778.673 174.286 605.241 0.658691 391.302 0.658691C177.363 0.658691 3.93066 174.286 3.93066 388.467C3.93066 602.648 177.363 776.275 391.302 776.275Z" fill="url(#paint0_linear_16_4011)"/>
</g>
<g opacity="0.16" filter="url(#filter1_d_16_4011)">
<path d="M391.302 680.557C552.437 680.557 683.063 549.784 683.063 388.467C683.063 227.15 552.437 96.3765 391.302 96.3765C230.167 96.3765 99.541 227.15 99.541 388.467C99.541 549.784 230.167 680.557 391.302 680.557Z" fill="url(#paint1_linear_16_4011)"/>
</g>
<g opacity="0.12" filter="url(#filter2_d_16_4011)">
<path d="M390.909 545.112C477.685 545.112 548.031 474.687 548.031 387.813C548.031 300.94 477.685 230.515 390.909 230.515C304.134 230.515 233.788 300.94 233.788 387.813C233.788 474.687 304.134 545.112 390.909 545.112Z" fill="url(#paint2_linear_16_4011)"/>
</g>
<g clip-path="url(#clip0_16_4011)">
<path d="M380.714 457.052C380.714 457.052 342.291 443.67 363.133 408.373C365.846 403.776 376.984 418.274 366.202 400.719C355.421 383.164 381.895 367.029 393.858 370.719C405.821 374.408 376.538 380.411 397.098 402.043C404.848 410.196 397.952 416.548 400.613 416.295C403.28 416.043 408.392 413.06 402.262 403.888C396.132 394.716 403.139 394.775 405.539 397.706C407.939 400.637 413.653 405.561 416.053 430.317C417.056 440.679 413.17 447.464 407.545 452.559C402.619 457.015 397.209 460.764 380.706 457.052H380.714Z" fill="url(#paint3_radial_16_4011)"/>
<path d="M402.47 357.671C403.392 357.061 401.787 357.634 401.579 357.82C400.627 358.661 399.959 360.215 399.773 361.487C399.372 364.188 399.565 373.397 403.711 372.593C404.328 372.474 404.462 371.775 404.528 371.232C404.811 369 404.291 366.709 404.58 364.5C404.855 362.395 406.928 359.799 406.401 357.694C405.517 354.123 400.954 358.668 402.47 357.664V357.671Z" fill="url(#paint4_linear_16_4011)"/>
<path d="M367.845 358.779C368.58 357.917 378.017 353.706 374.74 350.47C367.555 343.381 365.95 361.004 367.845 358.779Z" fill="url(#paint5_linear_16_4011)"/>
<path d="M388.3 342.258C387.097 338.643 388.858 337.029 389.942 339.952C390.433 341.276 388.947 344.215 388.3 342.258Z" fill="url(#paint6_linear_16_4011)"/>
<path d="M355.517 396.457C356.476 392.774 358.839 392.38 358.155 395.423C357.843 396.799 354.997 398.45 355.517 396.457Z" fill="url(#paint7_linear_16_4011)"/>
<path d="M416.907 389.985C416.194 388.862 413.987 384.451 416.365 384.287C416.625 384.272 417.442 384.146 417.643 384.406C418.683 385.767 418.78 392.931 416.907 389.985Z" fill="url(#paint8_linear_16_4011)"/>
<path d="M393.784 350.798C394.825 350.798 397.7 351.921 398.607 351.274C401.133 349.452 398.569 345.769 396.058 346.156C391.941 346.781 393.101 352.286 397.574 351.616" fill="url(#paint9_linear_16_4011)"/>
<path d="M135.554 830.154L125.716 887.759L89.3213 885.096L92.9102 823.229C92.9102 823.229 115.967 827.104 135.554 830.154Z" fill="url(#paint10_linear_16_4011)"/>
<path d="M232.914 825.252L234.326 883.296L200.406 887.61L192.485 826.606C192.485 826.606 214.368 825.996 232.922 825.252H232.914Z" fill="url(#paint11_linear_16_4011)"/>
<path d="M217.11 581.553C217.11 581.553 231.339 668.749 236.868 696.563C242.396 724.376 248.452 792.678 245.792 809.563C243.124 826.449 238.398 830.86 228.337 834.252C218.277 837.659 196.446 851.555 187.671 839.631C178.895 827.706 128.457 685.464 163.418 619.862C198.378 554.268 217.11 581.553 217.11 581.553Z" fill="url(#paint12_linear_16_4011)"/>
<path d="M198.169 624.474C198.169 624.474 182.61 646.634 178.605 671.278C174.6 695.908 167.712 759.538 166.806 769.655C165.892 779.772 162.087 794.351 159.962 814.897C157.837 835.435 156.039 833.799 140.301 837.377C124.556 840.955 114.941 847.121 92.9171 828.852C70.8933 810.582 71.9781 816.392 84.6916 742.251C97.3977 668.11 87.3369 639.657 103.342 609.307C119.355 578.957 197.099 602.128 198.169 624.482V624.474Z" fill="url(#paint13_linear_16_4011)"/>
<path d="M88.051 431.433C88.051 431.433 41.8336 424.701 27.7231 475.47C13.6127 526.232 57.5861 521.278 57.5861 521.278C57.5861 521.278 112.988 453.504 87.8206 427.885L88.051 431.433Z" fill="url(#paint14_linear_16_4011)"/>
<path d="M60.0085 517.365C60.0085 517.365 31.4756 483.288 25.4421 508.877C19.416 534.466 -31.4752 681.38 48.3873 692.129C128.257 702.878 60.0085 517.365 60.0085 517.365Z" fill="url(#paint15_linear_16_4011)"/>
<path d="M182.239 327.597C182.239 327.597 207.547 309.402 214.182 324.889C220.818 340.369 236.86 370.376 219.109 374.922C201.357 379.467 174.779 366.144 182.239 327.597Z" fill="#151226"/>
<path d="M173.538 415.566C173.538 415.566 173.568 425.661 173.85 428.51C173.85 428.51 153.446 438.016 140.829 426.025C140.829 426.025 141.164 419.635 140.837 415.737C140.51 411.84 133.577 417.262 133.154 419.97C132.73 422.685 133.733 427.483 131.972 430.183C130.211 432.891 123.635 438.76 121.971 442.13C120.307 445.492 110.751 503.09 110.751 503.09L218.002 500.003C218.002 500.003 206.529 446.37 185.167 436.997C185.167 436.997 183.257 437.979 183.822 423.407C183.822 423.407 185.524 415.537 173.538 415.566Z" fill="url(#paint16_linear_16_4011)"/>
<path d="M361.149 578.801C358.541 578.057 353.34 576.145 349.61 571.355C341.711 561.223 347.938 547.923 348.377 547.023C355.755 541.459 361.454 544.605 361.454 544.605C369.07 542.136 378.485 539.785 389.43 538.535C397.975 537.561 403.83 536.973 410.517 537.278C410.822 537.464 411.847 538.126 412.182 539.435C412.494 540.648 412.018 541.674 411.855 542.017C410.644 544.628 407.114 545.349 406.832 545.401C408.385 546.614 409.054 548.555 408.571 550.489C407.835 553.45 404.833 554.662 404.662 554.729C405.242 555.614 405.866 556.939 405.465 558.382C405.242 559.185 404.64 560.011 403.956 560.993C403.577 561.536 401.742 562.235 401.489 562.54C401.593 562.882 403.763 564.987 402.114 567.256C400.672 569.235 398.027 570.336 395.411 570.031C395.716 570.99 396.281 573.304 394.928 574.843C393.784 576.145 391.785 576.316 387.981 576.301C382.155 576.287 377.786 575.863 377.162 575.81C373.566 575.483 368.275 575.788 361.142 578.801H361.149Z" fill="url(#paint17_linear_16_4011)"/>
<path d="M210.423 527.228C210.423 527.228 182.38 471.996 239.238 475.321C239.238 475.321 242.537 479.197 256.128 484.278C269.718 489.358 262.681 490.682 265.668 492.534C268.655 494.387 274.377 498.106 277.171 502.316C279.972 506.527 280.908 511.458 290.731 515.475C300.554 519.492 322.935 526.737 333.672 533.603C344.409 540.462 349.246 542.619 355.22 542.902C361.187 543.184 364.33 540.365 366.99 553.033C369.65 565.701 375.602 568.654 372.392 575.773C369.182 582.892 365.021 585.332 354.128 581.508C343.242 577.685 337.268 590.651 318.276 582.899C299.284 575.148 289.542 577.224 281.881 571.965C274.221 566.698 251.454 568.238 239.075 552.773C226.703 537.308 211.842 538.089 210.408 527.221L210.423 527.228Z" fill="url(#paint18_linear_16_4011)"/>
<path d="M210.423 527.228C210.423 527.228 182.38 471.996 239.238 475.321C239.238 475.321 242.537 479.197 256.128 484.278C269.718 489.358 262.681 490.682 265.668 492.534C268.655 494.387 274.377 498.106 277.171 502.316C279.972 506.527 280.908 511.458 290.731 515.475C300.554 519.492 322.935 526.737 333.672 533.603C344.409 540.462 349.246 542.619 355.22 542.902C361.187 543.184 364.33 540.365 366.99 553.033C369.65 565.701 375.602 568.654 372.392 575.773C369.182 582.892 365.021 585.332 354.128 581.508C343.242 577.685 337.268 590.651 318.276 582.899C299.284 575.148 289.542 577.224 281.881 571.965C274.221 566.698 251.454 568.238 239.075 552.773C226.703 537.308 211.842 538.089 210.408 527.221L210.423 527.228Z" fill="url(#paint19_linear_16_4011)"/>
<path d="M205.333 442.249C205.333 442.249 216.516 449.39 219.295 450.982C222.067 452.574 225.388 455.616 227.008 457.655C228.635 459.7 233.383 464.811 242.731 472.279C252.078 479.747 292.344 499.802 290.798 511.377C289.245 522.944 279.891 513.772 274.407 538.074C268.923 562.369 246.528 575.796 241.364 564.541C236.199 553.286 209.48 542.046 205.066 523.777C200.652 505.508 186.163 445.239 205.333 442.256V442.249Z" fill="url(#paint20_linear_16_4011)"/>
<path d="M205.333 442.249C205.333 442.249 216.516 449.39 219.295 450.982C222.067 452.574 225.388 455.616 227.008 457.655C228.635 459.7 233.383 464.811 242.731 472.279C252.078 479.747 292.344 499.802 290.798 511.377C289.245 522.944 279.891 513.772 274.407 538.074C268.923 562.369 246.528 575.796 241.364 564.541C236.199 553.286 209.48 542.046 205.066 523.777C200.652 505.508 186.163 445.239 205.333 442.256V442.249Z" fill="url(#paint21_linear_16_4011)"/>
<path d="M140.324 414.101C140.324 414.101 134.172 416.028 133.057 420.967C131.943 425.906 134.796 428.19 129.253 434.863C122.194 443.365 109.332 446.988 171.874 474.86C171.874 474.86 204.523 455.535 195.696 446.192C186.794 436.767 184.223 436.611 184.223 436.611C184.223 436.611 183.45 433.732 183.599 430.801C183.919 424.315 183.985 414.778 173.338 415.738C173.338 415.738 174.534 406.32 175.537 404.848C176.548 403.375 204.025 412.457 213.232 428.495C213.232 428.495 216.642 432.46 215.29 442.837C213.938 453.214 223.969 458.897 187.931 474.34L171.584 481.674C171.584 481.674 115.989 491.129 89.9828 476.891C85.8812 474.645 79.1046 457.833 81.9505 447.687C82.7678 444.778 84.2168 440.784 86.5871 435.324C97.2424 410.858 88.0063 403.888 139.923 401.746C139.923 401.746 140.993 408.388 140.324 414.101Z" fill="url(#paint22_linear_16_4011)"/>
<path d="M209.278 463.724C209.278 463.724 248.935 626.074 240.442 652.436C240.442 652.436 246.267 672.692 241.155 680.19C235.857 687.963 219.213 683.024 196.156 685.278C150.853 689.704 71.1612 706.82 71.555 694.606C71.9488 682.392 34.9303 483.883 100.497 462.467C100.497 462.467 170.402 480.908 172.914 480.908C175.425 480.908 209.278 463.724 209.278 463.724Z" fill="url(#paint23_linear_16_4011)"/>
<path d="M209.278 463.724C209.278 463.724 248.935 626.074 240.442 652.436C240.442 652.436 246.267 672.692 241.155 680.19C235.857 687.963 219.213 683.024 196.156 685.278C150.853 689.704 71.1612 706.82 71.555 694.606C71.9488 682.392 34.9303 483.883 100.497 462.467C100.497 462.467 170.402 480.908 172.914 480.908C175.425 480.908 209.278 463.724 209.278 463.724Z" fill="url(#paint24_linear_16_4011)"/>
<path d="M105.645 699.765C103.78 702.77 101.454 706.066 98.5637 709.428C93.2212 715.639 87.6856 720.073 83.1084 723.167L86.4893 736.341C86.4893 736.341 105.474 731.082 110.928 703.663C109.167 702.361 107.399 701.067 105.638 699.765H105.645Z" fill="url(#paint25_linear_16_4011)"/>
<path d="M49.8434 545.61C49.8434 545.61 89.6855 489.938 115.38 547.477C115.38 547.477 113.262 552.691 115.202 568.625C117.141 584.558 112.259 578.325 111.969 582.2C111.68 586.076 110.944 593.589 108.239 598.484C105.542 603.378 101.18 606.815 102.25 618.509C103.313 630.202 107.615 655.873 106.359 669.91C105.104 683.947 105.453 689.801 108.217 695.804C110.981 701.807 115.343 703.458 104.279 712.526C93.215 721.594 93.3636 728.943 84.7517 729.412C76.1398 729.88 71.637 727.039 69.8314 714.401C68.0332 701.762 52.2881 702.499 50.215 679.9C48.1419 657.301 41.1424 648.791 42.3981 638.586C43.6539 628.38 30.554 606.808 39.4037 586.775C48.2533 566.75 39.9238 552.55 49.8434 545.617V545.61Z" fill="url(#paint26_linear_16_4011)"/>
<path d="M191.906 295.796C191.906 295.796 197.472 280.354 220.945 283.314C220.945 283.314 225.685 284.385 234.304 282.555C234.304 282.555 231.243 292.56 230.426 301.249C229.608 309.937 224.63 318.923 218.894 318.923C218.894 318.923 188.436 302.208 191.906 295.796Z" fill="url(#paint27_linear_16_4011)"/>
<path d="M185.464 299.843C185.464 299.843 193.37 290.418 184.877 274.953C184.877 274.953 177.855 266.027 187.195 269.211C187.195 269.211 190.561 271.055 192.456 276.701C192.456 276.701 201.855 263.542 185.426 240.601C185.426 240.601 172.312 226.334 186.274 231.727C186.274 231.727 190.71 233.252 195.747 241.606C195.747 241.606 196.386 234.011 201.484 238.466C206.581 242.922 199.953 242.283 200.845 252.86C201.736 263.438 202.375 287.361 194.217 301.256C186.058 315.152 182.12 304.373 185.471 299.843H185.464Z" fill="url(#paint28_linear_16_4011)"/>
<path d="M140.889 427.848C140.889 427.848 158.618 444.592 173.954 428.51C173.954 428.51 171.517 410.441 177.149 403.07C179.245 400.332 222.2 413.394 238.554 405.264C238.554 405.264 253.014 405.279 253.126 395.311C253.23 385.343 226.955 378.172 224.407 336.687C221.866 295.201 165.305 279.773 137.106 307.951C108.908 336.136 128.153 362.015 135.123 378.135C142.092 394.255 140.889 427.84 140.889 427.84V427.848Z" fill="url(#paint29_linear_16_4011)"/>
<path d="M140.889 427.848C140.889 427.848 158.618 444.592 173.954 428.51C173.954 428.51 171.517 410.441 177.149 403.07C179.245 400.332 222.2 413.394 238.554 405.264C238.554 405.264 253.014 405.279 253.126 395.311C253.23 385.343 226.955 378.172 224.407 336.687C221.866 295.201 165.305 279.773 137.106 307.951C108.908 336.136 128.153 362.015 135.123 378.135C142.092 394.255 140.889 427.84 140.889 427.84V427.848Z" fill="url(#paint30_linear_16_4011)"/>
<path d="M409.395 446.675C408.466 446.66 407.805 446.496 407.248 445.953C406.794 445.522 406.527 444.875 406.534 444.257C406.557 443.023 407.567 442.041 408.801 442.063C409.068 442.063 409.328 442.123 409.566 442.212C409.96 442.212 410.599 442.167 410.985 442.145C412.471 442.048 413.222 442.004 413.987 442.733C414.44 443.164 414.693 443.774 414.678 444.399C414.656 445.634 413.645 446.616 412.412 446.593C412.285 446.593 412.167 446.578 412.048 446.556C411.84 446.563 411.52 446.586 411.26 446.601C410.524 446.645 409.915 446.682 409.388 446.675H409.395ZM410.227 444.324C410.22 444.964 410.458 445.477 410.792 445.849C410.435 445.448 410.22 444.912 410.227 444.324ZM410.941 443.804C410.978 443.975 411 444.153 410.993 444.339C410.993 444.153 410.978 443.975 410.941 443.804ZM389.823 601.898C389.199 601.891 388.605 601.764 388.07 601.236C387.624 600.804 387.371 600.194 387.386 599.577C387.386 599.408 387.505 598.786 387.743 597.71C387.795 597.464 387.854 597.212 387.906 596.959C387.75 596.631 387.668 596.267 387.676 595.88C387.676 595.605 387.676 595.56 388.159 593.418C387.735 593.418 387.185 593.321 386.665 592.86C386.182 592.428 385.907 591.804 385.915 591.156C385.93 590.316 386.175 589.914 387.156 589.059C386.717 588.605 386.472 587.995 386.487 587.363C386.502 586.537 386.814 585.987 388.315 584.038C388.025 584.053 387.78 584.075 387.609 584.082C386.219 584.179 385.588 584.216 384.86 583.524C384.406 583.093 384.154 582.49 384.169 581.866C384.183 580.832 384.711 580.14 386.071 579.158C385.603 579.031 385.224 578.823 384.897 578.518C384.399 578.05 384.117 577.395 384.131 576.711C384.154 575.595 384.711 574.806 386.621 573.49C384.577 573.452 383.842 573.185 383.225 572.59C382.757 572.136 382.489 571.496 382.504 570.849C382.512 570.284 382.616 569.874 382.853 569.547C382.831 569.525 382.809 569.502 382.779 569.48C382.341 569.049 382.088 568.431 382.096 567.814C382.118 566.616 382.831 565.798 384.325 564.965C383.195 564.838 382.497 564.548 381.969 564.05C381.434 563.552 381.152 562.875 381.159 562.161C381.174 561.476 381.397 560.993 381.783 560.613C381.724 560.561 381.657 560.509 381.598 560.457C381.078 559.974 380.788 559.297 380.803 558.597C380.818 557.801 381.055 557.229 381.657 556.767C381.531 556.678 381.404 556.574 381.271 556.448C380.817 556.016 380.557 555.406 380.572 554.781C380.587 554.097 380.825 553.606 381.189 553.249C380.691 553.175 380.453 552.989 380.104 552.654C379.658 552.222 379.406 551.62 379.413 550.995C379.435 549.857 379.993 549.173 381.457 548.525C380.498 548.481 380.104 548.28 379.651 547.848C379.198 547.417 378.938 546.792 378.945 546.167C378.952 545.654 379.049 545.245 379.272 544.888C378.707 544.709 378.425 544.486 378.165 544.226C377.697 543.765 377.444 543.147 377.451 542.5C377.466 541.585 377.816 540.923 378.559 540.417C378.41 540.321 378.291 540.209 378.172 540.105C377.667 539.621 377.399 538.974 377.414 538.297C377.444 536.408 379.153 536.088 380.52 535.828C381.211 535.694 382.148 535.537 383.225 535.352C377.578 535.731 377.087 535.746 376.218 534.92C375.765 534.489 375.505 533.864 375.512 533.239C375.534 532.131 375.951 531.431 377.147 530.911C376.79 530.792 376.619 530.62 376.374 530.375C375.951 529.951 375.713 529.356 375.72 528.753C375.735 527.712 376.196 526.983 377.162 526.44C375.995 526.269 375.735 526.009 375.371 525.637C374.947 525.213 374.687 524.58 374.695 523.97C374.717 522.795 375.386 522.148 376.344 521.746C374.881 521.605 374.033 521.27 373.424 520.697C372.867 520.177 372.562 519.47 372.577 518.719C372.585 518.235 372.674 517.819 372.867 517.447C372.785 517.38 372.696 517.305 372.614 517.223C372.161 516.792 371.894 516.145 371.901 515.527C371.923 514.166 372.614 513.259 374.531 512.559C373.721 512.418 373.253 512.165 372.852 511.786C372.362 511.317 372.087 510.67 372.102 510C372.131 508.468 372.949 507.605 375.475 506.966C373.172 506.958 372.265 506.668 371.589 506.036C371.091 505.567 370.816 504.905 370.824 504.236C370.853 502.569 372.183 501.788 374.108 501.297C371.834 501.23 370.72 500.888 369.991 500.204C369.441 499.69 369.144 498.999 369.159 498.255C369.174 497.608 369.367 497.139 369.679 496.804C369.308 496.641 369.018 496.447 368.78 496.217C368.253 495.711 367.963 495.034 367.978 494.32C368 492.906 368.884 492.207 370.467 491.783C369.3 491.56 368.646 491.24 368.186 490.794C367.68 490.295 367.406 489.641 367.413 488.942C367.42 488.332 367.576 487.841 367.903 487.439C367.866 487.402 367.829 487.365 367.792 487.327C367.361 486.896 367.123 486.301 367.131 485.698C367.145 484.873 367.413 484.255 368.052 483.772C367.859 483.653 367.688 483.526 367.532 483.377C366.975 482.849 366.677 482.15 366.685 481.399C366.715 479.517 368.059 479.115 370.727 478.825C366.477 478.654 366.157 478.327 365.615 477.776C365.191 477.352 364.939 476.727 364.953 476.125C364.968 475.135 365.37 474.525 366.12 474.131C365.994 474.042 365.882 473.953 365.778 473.849C365.184 473.283 364.864 472.539 364.879 471.751C364.901 470.657 365.422 469.966 366.402 469.489C365.526 469.333 365.169 469.088 364.82 468.738C364.389 468.307 364.114 467.652 364.121 467.042C364.151 465.279 365.488 464.461 367.836 463.985C364.032 463.873 363.779 463.613 363.244 463.062C362.821 462.638 362.583 462.036 362.591 461.433C362.605 460.786 362.754 460.243 363.118 459.782C362.858 459.641 362.635 459.477 362.442 459.291C361.862 458.741 361.55 458.012 361.565 457.238C361.573 456.613 361.714 456.07 362.056 455.601C361.521 455.021 361.231 454.285 361.246 453.504C361.253 452.916 361.402 452.492 361.654 452.172C361.283 451.979 360.978 451.763 360.726 451.518C360.049 450.878 359.693 450.037 359.708 449.152C359.715 448.654 359.752 448.505 360.919 445.492C360.711 445.396 360.518 445.277 360.332 445.105C359.812 444.652 359.522 443.99 359.537 443.298C359.559 442.063 360.57 441.081 361.803 441.103C362.056 441.103 362.293 441.156 362.516 441.23C362.628 441.215 362.747 441.2 362.843 441.185C363.713 441.059 364.701 440.91 365.555 441.669C366.046 442.1 366.336 442.762 366.328 443.417C366.321 443.93 366.254 444.094 365.191 446.824C364.991 447.345 364.738 447.999 364.523 448.557C368.817 449.77 385.112 448.669 394.163 448.059C409.722 447.01 411.847 447.032 413.177 448.297C413.675 448.765 413.95 449.427 413.935 450.097C413.913 451.213 413.341 451.964 412.397 452.5C412.813 453.05 413.036 453.712 413.021 454.404C412.999 455.624 412.389 456.278 411.319 456.65C411.572 457.097 411.698 457.595 411.691 458.108C411.676 459.068 411.245 459.73 410.524 460.191C410.785 460.318 410.933 460.466 411.111 460.645C411.535 461.069 411.78 461.679 411.765 462.281C411.736 463.777 410.978 464.714 408.466 465.361C408.905 465.54 409.224 465.748 409.469 465.993C409.975 466.492 410.242 467.139 410.227 467.831C410.212 468.865 409.744 469.556 408.867 470.047C409.068 470.166 409.246 470.3 409.402 470.449C409.989 471.007 410.309 471.743 410.294 472.524C410.272 473.767 409.618 474.555 408.243 475.106C408.295 475.158 408.347 475.21 408.399 475.262C408.823 475.686 409.061 476.281 409.046 476.876C409.023 477.999 408.533 478.758 407.255 479.323C407.708 479.517 408.065 479.747 408.355 480.03C408.949 480.588 409.269 481.332 409.254 482.128C409.232 483.616 408.399 484.181 406.765 484.471C406.832 484.53 406.898 484.59 406.965 484.649C407.433 485.118 407.686 485.736 407.679 486.383C407.664 487.112 407.456 487.625 407.047 487.997C407.456 488.443 407.679 489.023 407.671 489.619C407.649 491.069 406.72 491.828 404.929 492.334C405.539 492.52 405.977 492.773 406.311 493.092C406.832 493.598 407.114 494.26 407.106 494.974C407.092 495.763 406.824 496.41 406.311 496.946C406.794 497.489 407.054 498.173 407.04 498.895C407.01 500.583 405.643 501.372 403.674 501.87C404.32 502.086 404.803 502.368 405.175 502.718C405.769 503.283 406.088 504.027 406.074 504.823C406.044 506.363 405.108 507.27 402.581 507.947C402.923 508.111 403.205 508.304 403.443 508.528C404.008 509.071 404.313 509.785 404.305 510.544C404.283 511.964 403.584 512.723 401.444 513.274C401.987 513.474 402.396 513.727 402.715 514.025C403.287 514.575 403.599 515.297 403.584 516.063C403.57 516.985 403.183 517.588 402.574 517.997C402.767 518.376 402.871 518.793 402.864 519.224C402.841 520.571 402.173 521.449 400.181 522.17C400.961 522.267 401.155 522.453 401.496 522.795C401.92 523.219 402.158 523.807 402.15 524.409C402.128 525.637 401.511 526.44 400.196 527.02C400.478 527.154 400.642 527.318 400.843 527.519C401.266 527.943 401.511 528.56 401.504 529.163C401.489 530.092 401.162 530.747 400.352 531.253C400.56 531.379 400.739 531.513 400.895 531.662C401.452 532.198 401.757 532.904 401.742 533.655C401.719 534.92 401.184 535.753 398.977 536.564C399.193 536.661 399.379 536.802 399.594 537.018C400.04 537.449 400.285 538.044 400.27 538.662C400.248 539.74 399.802 540.44 398.755 540.96C398.844 541.035 398.94 541.124 399.044 541.228C399.475 541.66 399.721 542.247 399.706 542.857C399.691 543.623 399.408 544.159 398.955 544.538C398.978 544.561 399.007 544.583 399.03 544.605C399.557 545.111 399.847 545.781 399.832 546.495C399.802 548.146 398.658 548.503 397.038 548.89C397.373 549.039 397.64 549.225 397.863 549.44C398.376 549.931 398.658 550.593 398.643 551.293C398.628 552.074 398.39 552.646 397.789 553.123C397.803 553.137 397.826 553.152 397.841 553.175C398.368 553.673 398.651 554.342 398.636 555.057C398.621 555.964 398.346 556.544 397.551 557.006C397.566 557.02 397.588 557.035 397.603 557.05C398.108 557.519 398.383 558.181 398.376 558.858C398.353 559.929 397.811 560.509 396.986 560.903C397.328 561.32 397.529 561.863 397.514 562.399C397.491 563.819 396.629 564.526 394.304 565.538C395.716 565.605 396.258 565.835 396.786 566.348C397.224 566.78 397.491 567.42 397.477 568.037C397.462 568.833 397.216 569.406 396.607 569.874C396.815 570.231 396.927 570.641 396.919 571.05C396.897 572.411 396.288 572.783 393.368 574.509C394.029 574.561 394.475 574.747 394.913 575.156C395.374 575.587 395.649 576.227 395.634 576.859C395.611 577.99 395.084 578.578 393.33 579.731C393.642 579.857 393.895 580.028 394.125 580.251C394.601 580.705 394.868 581.345 394.861 581.999C394.846 582.833 394.631 583.145 393.026 585.198C393.323 585.295 393.598 585.451 393.858 585.682C394.348 586.113 394.646 586.797 394.631 587.452C394.616 588.397 394.267 588.895 392.855 590.093C393.041 590.442 393.137 590.829 393.13 591.231C393.13 591.528 393.13 591.558 392.572 594.043C392.513 594.303 392.446 594.593 392.387 594.876C392.543 595.203 392.624 595.56 392.624 595.917C392.624 596.163 392.624 596.207 392.275 597.807C392.342 597.859 392.402 597.911 392.468 597.978C392.914 598.409 393.159 599.004 393.152 599.622C393.13 600.909 392.015 601.913 390.73 601.809C390.685 601.809 390.633 601.809 390.574 601.816C390.321 601.831 390.076 601.838 389.838 601.838L389.823 601.898Z" fill="url(#paint31_linear_16_4011)"/>
<path d="M376.984 556.336C377.66 556.336 387.839 554.93 388.739 554.484C389.638 554.037 393.227 550.214 391.205 547.067C389.184 543.921 377.741 545.267 377.741 545.267L373.283 544.977C373.283 544.977 367.918 543.757 366.982 543.177C364.292 543.958 360.488 545.126 360.488 545.126C356.617 555.086 357.397 565.173 363.059 570.99C364.285 572.255 366.187 573.765 369.078 574.873C370.006 575.297 370.928 575.714 371.857 576.138C372.674 575.416 373.35 574.672 373.915 573.943C378.826 567.613 377.585 559.319 376.984 556.336Z" fill="url(#paint32_linear_16_4011)"/>
<path d="M139.566 318.685C139.566 318.685 121.845 286.357 73.1455 294.048C73.1455 294.048 80.4719 310.027 84.5884 321.862C85.6064 324.778 86.7432 328.363 87.6943 330.148C93.5644 341.202 119.675 345.732 131.965 344.587L139.566 318.693V318.685Z" fill="url(#paint33_linear_16_4011)"/>
<path opacity="0.74" d="M203.899 342.749C198.052 324.658 178.658 314.743 160.587 320.589C142.516 326.444 132.604 345.851 138.452 363.935C144.3 382.025 163.693 391.941 181.764 386.094C199.835 380.24 209.747 360.84 203.899 342.749Z" fill="url(#paint34_linear_16_4011)"/>
<path opacity="0.59" d="M135.338 321.222C135.338 321.222 114.875 297.448 84.6699 300.706C84.6699 300.706 88.9647 321.995 94.1512 328.437C99.3376 334.879 120.938 336.121 127.395 334.388C133.859 332.655 139.819 325.99 135.338 321.222Z" fill="url(#paint35_linear_16_4011)"/>
<path opacity="0.48" d="M209.16 337.126C207.31 333.466 204.999 330.914 204.003 331.42C203.008 331.926 203.699 335.303 205.549 338.956C207.399 342.615 209.71 345.167 210.706 344.661C211.701 344.155 211.01 340.778 209.16 337.126Z" fill="#FFFDF7"/>
<path opacity="0.38" d="M187.678 379.429C183.584 379.415 180.255 380.307 180.255 381.43C180.255 382.546 183.569 383.469 187.663 383.483C191.757 383.498 195.086 382.606 195.086 381.482C195.086 380.367 191.772 379.444 187.678 379.429Z" fill="#FFFDF7"/>
<path opacity="0.38" d="M170.796 379.444C168.307 379.437 166.294 380.337 166.286 381.453C166.286 382.569 168.292 383.484 170.782 383.491C173.271 383.498 175.284 382.598 175.292 381.483C175.292 380.367 173.286 379.452 170.796 379.444Z" fill="#FFFDF7"/>
<path opacity="0.38" d="M180.657 385.76C177.699 385.752 175.299 386.556 175.292 387.553C175.292 388.557 177.685 389.375 180.642 389.39C183.599 389.397 185.999 388.594 186.007 387.597C186.007 386.593 183.614 385.775 180.657 385.76Z" fill="#FFFDF7"/>
<path opacity="0.48" d="M222.802 334.902C222.349 331.539 221.338 328.899 220.536 329.003C219.733 329.114 219.451 331.926 219.897 335.288C220.35 338.651 221.36 341.291 222.163 341.187C222.965 341.083 223.248 338.264 222.802 334.902Z" fill="#FFFDF7"/>
<path opacity="0.61" d="M253.126 394.56C251.669 390.052 249.388 387.776 245.272 383.885C239.365 378.306 235.664 374.073 226.005 377.198C213.782 381.155 206.329 393.02 207.458 405.308C207.488 405.658 216.754 408.715 225.938 408.589C230.574 408.522 235.204 406.588 238.577 405.219C239.484 404.855 244.893 405.249 248.46 403.077C251.974 400.935 253.668 396.233 253.126 394.567V394.56Z" fill="url(#paint36_linear_16_4011)"/>
<path d="M238.145 405.086C238.145 405.086 252.189 407.034 253.029 395.616C253.868 384.198 243.473 388.17 239.082 391.153C234.698 394.136 230.581 397.773 238.145 405.086Z" fill="#3A2413"/>
<path d="M195.064 366.918C195.064 366.918 199.678 340.205 173.374 330.669C159.531 325.648 140.799 340.362 141.497 342.444C144.715 352.07 157.124 378.15 195.064 366.918Z" fill="#391F11"/>
<path d="M195.086 367.111C195.086 367.111 199.373 342.266 174.905 333.384C162.028 328.712 144.603 342.4 145.25 344.334C148.237 353.29 159.784 377.555 195.086 367.103V367.111Z" fill="url(#paint37_linear_16_4011)"/>
<path d="M190.25 351.46C190.25 341.782 182.41 333.942 172.743 333.942C163.076 333.942 155.237 341.782 155.237 351.46C155.237 361.138 163.076 368.978 172.743 368.978C182.41 368.978 190.25 361.138 190.25 351.46Z" fill="url(#paint38_linear_16_4011)"/>
<path d="M145.094 313.344C145.094 313.344 131.838 307.706 132.351 286.706C132.351 286.706 134.84 273.421 126.867 281.908C126.867 281.908 124.371 285.702 125.433 292.709C125.433 292.709 108.625 283.947 113.359 250.688C113.359 250.688 119.303 228.417 107.719 241.777C107.719 241.777 103.937 245.823 103.194 257.413C103.194 257.413 98.4532 249.729 95.5553 257.234C92.6574 264.74 99.1888 260.425 103.944 272.104C108.692 283.775 120.863 309.417 136.787 319.645C152.71 329.866 151.009 316.312 145.102 313.359L145.094 313.344Z" fill="url(#paint39_linear_16_4011)"/>
<path d="M246.223 349.883C244.358 337.215 237.544 327.73 230.99 328.697C224.437 329.665 220.632 340.711 222.497 353.379C224.355 366.047 231.176 375.531 237.73 374.564C244.284 373.597 248.088 362.551 246.223 349.883Z" fill="#F8C543" fill-opacity="0.21" stroke="#391F11" stroke-width="2.76866" stroke-linecap="round" stroke-linejoin="round"/>
<path d="M221.702 350.954C221.702 350.954 217.095 344.631 209.056 353.959" stroke="#391F11" stroke-width="2.76866" stroke-linecap="round" stroke-linejoin="round"/>
<path d="M208.959 357.002C208.959 342.377 198.163 330.52 184.847 330.52C171.532 330.52 160.735 342.377 160.735 357.002C160.735 371.626 171.532 383.483 184.847 383.483C198.163 383.483 208.959 371.626 208.959 357.002Z" fill="#F8C543" fill-opacity="0.21" stroke="#391F11" stroke-width="2.76866" stroke-linecap="round" stroke-linejoin="round"/>
<path d="M76.363 482.745C76.363 482.745 119.482 469.222 116.74 536.013C113.998 602.805 109.287 591.685 107.764 591.685C107.764 591.685 109.183 599.733 105.639 607.581C102.095 615.429 97.8072 618.494 102.526 637.544C107.244 656.594 153.015 580.705 144.916 521.768C136.825 462.832 108.559 444.652 94.5156 455.936C80.472 467.228 74.327 462.728 76.363 482.738V482.745Z" fill="url(#paint40_linear_16_4011)"/>
<path d="M203.423 466.603C203.423 466.603 233.197 561.766 234.341 583.725C235.485 605.684 241.192 461.411 215.46 448.073C215.46 448.073 217.622 459.105 203.423 466.603Z" fill="url(#paint41_linear_16_4011)"/>
<path d="M77.6331 482.321C77.6331 482.321 64.7859 489.217 54.8885 510.358C44.9837 531.498 39.2326 549.016 38.4301 556.053C37.6276 563.083 34.4251 575.52 33.5929 584.253C32.7606 592.986 33.9644 593.455 39.188 586.879C44.4116 580.304 66.9704 566.817 88.8903 580.311C110.81 593.812 110.721 596.17 112.214 584.774C113.701 573.378 124.363 478.535 77.6406 482.321H77.6331Z" fill="url(#paint42_linear_16_4011)"/>
<path d="M479.759 698.9C479.759 698.112 480.397 697.473 481.186 697.473C481.967 697.473 482.605 698.112 482.605 698.9C482.605 699.688 481.967 700.328 481.186 700.328C480.397 700.328 479.759 699.688 479.759 698.9Z" fill="#FCCA91"/>
<path opacity="0.0391503" d="M475.103 698.543C475.103 695.177 477.829 692.448 481.194 692.448C484.558 692.448 487.285 695.177 487.285 698.543C487.285 701.91 484.558 704.638 481.194 704.638C477.829 704.638 475.103 701.91 475.103 698.543Z" fill="#F8AC54"/>
<path opacity="0.0329471" d="M470.231 698.926C470.231 692.858 475.151 687.938 481.21 687.938C487.277 687.938 492.188 692.858 492.188 698.926C492.188 704.994 487.277 709.913 481.21 709.913C475.151 709.913 470.231 704.994 470.231 698.926Z" fill="#F8AC54"/>
<g filter="url(#filter3_f_16_4011)">
<path d="M479.232 698.9C479.232 697.822 480.101 696.948 481.186 696.948C482.262 696.948 483.131 697.822 483.131 698.9C483.131 699.978 482.262 700.853 481.186 700.853C480.101 700.853 479.232 699.978 479.232 698.9Z" fill="#F8AC54"/>
</g>
</g>
<defs>
<filter id="filter0_d_16_4011" x="0.23912" y="0.658691" width="782.125" height="783" filterUnits="userSpaceOnUse" color-interpolation-filters="sRGB">
<feFlood flood-opacity="0" result="BackgroundImageFix"/>
<feColorMatrix in="SourceAlpha" type="matrix" values="0 0 0 0 0 0 0 0 0 0 0 0 0 0 0 0 0 0 127 0" result="hardAlpha"/>
<feOffset dy="3.69154"/>
<feGaussianBlur stdDeviation="1.84577"/>
<feComposite in2="hardAlpha" operator="out"/>
<feColorMatrix type="matrix" values="0 0 0 0 0 0 0 0 0 0 0 0 0 0 0 0 0 0 0.25 0"/>
<feBlend mode="normal" in2="BackgroundImageFix" result="effect1_dropShadow_16_4011"/>
<feBlend mode="normal" in="SourceGraphic" in2="effect1_dropShadow_16_4011" result="shape"/>
</filter>
<filter id="filter1_d_16_4011" x="95.8495" y="96.3765" width="590.906" height="591.564" filterUnits="userSpaceOnUse" color-interpolation-filters="sRGB">
<feFlood flood-opacity="0" result="BackgroundImageFix"/>
<feColorMatrix in="SourceAlpha" type="matrix" values="0 0 0 0 0 0 0 0 0 0 0 0 0 0 0 0 0 0 127 0" result="hardAlpha"/>
<feOffset dy="3.69154"/>
<feGaussianBlur stdDeviation="1.84577"/>
<feComposite in2="hardAlpha" operator="out"/>
<feColorMatrix type="matrix" values="0 0 0 0 0 0 0 0 0 0 0 0 0 0 0 0 0 0 0.25 0"/>
<feBlend mode="normal" in2="BackgroundImageFix" result="effect1_dropShadow_16_4011"/>
<feBlend mode="normal" in="SourceGraphic" in2="effect1_dropShadow_16_4011" result="shape"/>
</filter>
<filter id="filter2_d_16_4011" x="230.097" y="230.515" width="321.626" height="321.981" filterUnits="userSpaceOnUse" color-interpolation-filters="sRGB">
<feFlood flood-opacity="0" result="BackgroundImageFix"/>
<feColorMatrix in="SourceAlpha" type="matrix" values="0 0 0 0 0 0 0 0 0 0 0 0 0 0 0 0 0 0 127 0" result="hardAlpha"/>
<feOffset dy="3.69154"/>
<feGaussianBlur stdDeviation="1.84577"/>
<feComposite in2="hardAlpha" operator="out"/>
<feColorMatrix type="matrix" values="0 0 0 0 0 0 0 0 0 0 0 0 0 0 0 0 0 0 0.25 0"/>
<feBlend mode="normal" in2="BackgroundImageFix" result="effect1_dropShadow_16_4011"/>
<feBlend mode="normal" in="SourceGraphic" in2="effect1_dropShadow_16_4011" result="shape"/>
</filter>
<filter id="filter3_f_16_4011" x="473.526" y="691.242" width="15.3103" height="15.3164" filterUnits="userSpaceOnUse" color-interpolation-filters="sRGB">
<feFlood flood-opacity="0" result="BackgroundImageFix"/>
<feBlend mode="normal" in="SourceGraphic" in2="BackgroundImageFix" result="shape"/>
<feGaussianBlur stdDeviation="2.85296" result="effect1_foregroundBlur_16_4011"/>
</filter>
<linearGradient id="paint0_linear_16_4011" x1="131.976" y1="-270.101" x2="556.116" y2="804.594" gradientUnits="userSpaceOnUse">
<stop stop-color="#F8C543"/>
<stop offset="1" stop-color="#F2717C"/>
</linearGradient>
<linearGradient id="paint1_linear_16_4011" x1="195.965" y1="-107.582" x2="515.447" y2="701.914" gradientUnits="userSpaceOnUse">
<stop stop-color="#F8C543"/>
<stop offset="1" stop-color="#F2717C"/>
</linearGradient>
<linearGradient id="paint2_linear_16_4011" x1="285.724" y1="120.682" x2="457.765" y2="556.592" gradientUnits="userSpaceOnUse">
<stop stop-color="#F8C543"/>
<stop offset="1" stop-color="#F2717C"/>
</linearGradient>
<radialGradient id="paint3_radial_16_4011" cx="0" cy="0" r="1" gradientUnits="userSpaceOnUse" gradientTransform="translate(433.226 449.73) rotate(-89.2464) scale(181.942 172.84)">
<stop stop-color="#F8C543"/>
<stop offset="1" stop-color="#F2717C"/>
</radialGradient>
<linearGradient id="paint4_linear_16_4011" x1="400.464" y1="383.781" x2="403.487" y2="356.884" gradientUnits="userSpaceOnUse">
<stop stop-color="#F8C543"/>
<stop offset="1" stop-color="#F2717C"/>
</linearGradient>
<linearGradient id="paint5_linear_16_4011" x1="368.811" y1="362.722" x2="372.236" y2="350.435" gradientUnits="userSpaceOnUse">
<stop stop-color="#F8C543"/>
<stop offset="1" stop-color="#F2717C"/>
</linearGradient>
<linearGradient id="paint6_linear_16_4011" x1="387.438" y1="344.207" x2="389.709" y2="338.459" gradientUnits="userSpaceOnUse">
<stop stop-color="#F8C543"/>
<stop offset="1" stop-color="#F2717C"/>
</linearGradient>
<linearGradient id="paint7_linear_16_4011" x1="353.71" y1="397.627" x2="358.748" y2="394.053" gradientUnits="userSpaceOnUse">
<stop stop-color="#F8C543"/>
<stop offset="1" stop-color="#F2717C"/>
</linearGradient>
<linearGradient id="paint8_linear_16_4011" x1="417.45" y1="393.913" x2="416.601" y2="384.019" gradientUnits="userSpaceOnUse">
<stop stop-color="#F8C543"/>
<stop offset="1" stop-color="#F2717C"/>
</linearGradient>
<linearGradient id="paint9_linear_16_4011" x1="391.451" y1="357.872" x2="397.443" y2="347.546" gradientUnits="userSpaceOnUse">
<stop stop-color="#F8C543"/>
<stop offset="1" stop-color="#F2717C"/>
</linearGradient>
<linearGradient id="paint10_linear_16_4011" x1="113.944" y1="830.274" x2="111.73" y2="861.877" gradientUnits="userSpaceOnUse">
<stop stop-color="#DDA165"/>
<stop offset="1" stop-color="#BE5D28"/>
</linearGradient>
<linearGradient id="paint11_linear_16_4011" x1="212.999" y1="834.421" x2="214.706" y2="884.303" gradientUnits="userSpaceOnUse">
<stop stop-color="#DDA165"/>
<stop offset="1" stop-color="#BE5D28"/>
</linearGradient>
<linearGradient id="paint12_linear_16_4011" x1="294.408" y1="771.096" x2="193.254" y2="704.639" gradientUnits="userSpaceOnUse">
<stop stop-color="#3D304E"/>
<stop offset="1" stop-color="#11122E"/>
</linearGradient>
<linearGradient id="paint13_linear_16_4011" x1="138.276" y1="830.315" x2="135.975" y2="640.643" gradientUnits="userSpaceOnUse">
<stop stop-color="#3D2F4E"/>
<stop offset="1" stop-color="#0E163C"/>
</linearGradient>
<linearGradient id="paint14_linear_16_4011" x1="50.1557" y1="444.905" x2="69.8473" y2="497.021" gradientUnits="userSpaceOnUse">
<stop stop-color="#4A2816"/>
<stop offset="1" stop-color="#010101"/>
</linearGradient>
<linearGradient id="paint15_linear_16_4011" x1="-6.30823" y1="570.849" x2="37.3009" y2="594.605" gradientUnits="userSpaceOnUse">
<stop stop-color="#4A2816"/>
<stop offset="1" stop-color="#010101"/>
</linearGradient>
<linearGradient id="paint16_linear_16_4011" x1="155.653" y1="443.603" x2="167.657" y2="523.178" gradientUnits="userSpaceOnUse">
<stop stop-color="#EDE3DC"/>
<stop offset="1" stop-color="#010101"/>
</linearGradient>
<linearGradient id="paint17_linear_16_4011" x1="377.226" y1="560.996" x2="399.841" y2="525.184" gradientUnits="userSpaceOnUse">
<stop stop-color="#DEA163"/>
<stop offset="1" stop-color="#CC7A3C"/>
</linearGradient>
<linearGradient id="paint18_linear_16_4011" x1="277.745" y1="534.905" x2="120.143" y2="436.761" gradientUnits="userSpaceOnUse">
<stop stop-color="#EDE3DC"/>
<stop offset="1" stop-color="#010101"/>
</linearGradient>
<linearGradient id="paint19_linear_16_4011" x1="408.864" y1="456.514" x2="168.116" y2="440.914" gradientUnits="userSpaceOnUse">
<stop stop-color="#F8C543"/>
<stop offset="1" stop-color="#F2717C" stop-opacity="0"/>
</linearGradient>
<linearGradient id="paint20_linear_16_4011" x1="279.262" y1="515.511" x2="199.482" y2="490.483" gradientUnits="userSpaceOnUse">
<stop stop-color="#E5B740"/>
<stop offset="1" stop-color="#743C19"/>
</linearGradient>
<linearGradient id="paint21_linear_16_4011" x1="260.423" y1="498.731" x2="206.737" y2="570.36" gradientUnits="userSpaceOnUse">
<stop stop-color="#F8C543"/>
<stop offset="1" stop-color="#4D2226" stop-opacity="0.7"/>
</linearGradient>
<linearGradient id="paint22_linear_16_4011" x1="144.961" y1="440.189" x2="122.957" y2="394.185" gradientUnits="userSpaceOnUse">
<stop stop-color="#E5B740"/>
<stop offset="1" stop-color="#743C19"/>
</linearGradient>
<linearGradient id="paint23_linear_16_4011" x1="158.744" y1="682.042" x2="124.668" y2="392.359" gradientUnits="userSpaceOnUse">
<stop stop-color="#E5B740"/>
<stop offset="1" stop-color="#743C19"/>
</linearGradient>
<linearGradient id="paint24_linear_16_4011" x1="222.389" y1="491.867" x2="33.5845" y2="754.983" gradientUnits="userSpaceOnUse">
<stop stop-color="#F8C543"/>
<stop offset="1" stop-color="#291517" stop-opacity="0.78"/>
</linearGradient>
<linearGradient id="paint25_linear_16_4011" x1="112.413" y1="716.242" x2="79.0864" y2="720.347" gradientUnits="userSpaceOnUse">
<stop stop-color="#DDA165"/>
<stop offset="1" stop-color="#BE5D28"/>
</linearGradient>
<linearGradient id="paint26_linear_16_4011" x1="76.8017" y1="615.34" x2="92.9357" y2="410.608" gradientUnits="userSpaceOnUse">
<stop stop-color="#EDE3DC"/>
<stop offset="1" stop-color="#010101"/>
</linearGradient>
<linearGradient id="paint27_linear_16_4011" x1="234.297" y1="300.736" x2="191.624" y2="300.736" gradientUnits="userSpaceOnUse">
<stop stop-color="#DDA165"/>
<stop offset="1" stop-color="#BE5D28"/>
</linearGradient>
<linearGradient id="paint28_linear_16_4011" x1="191.638" y1="234.695" x2="191.162" y2="304.276" gradientUnits="userSpaceOnUse">
<stop stop-color="#D59861"/>
<stop offset="0.86" stop-color="#FEDCB9"/>
<stop offset="1" stop-color="#FEDCB9" stop-opacity="0"/>
</linearGradient>
<linearGradient id="paint29_linear_16_4011" x1="182.224" y1="326.57" x2="196.782" y2="438.92" gradientUnits="userSpaceOnUse">
<stop stop-color="#DDA165"/>
<stop offset="1" stop-color="#BE5D28"/>
</linearGradient>
<linearGradient id="paint30_linear_16_4011" x1="232.947" y1="351.44" x2="132.735" y2="305.052" gradientUnits="userSpaceOnUse">
<stop stop-color="#F8C543"/>
<stop offset="1" stop-color="#F2717C" stop-opacity="0"/>
</linearGradient>
<linearGradient id="paint31_linear_16_4011" x1="385.13" y1="565.064" x2="391.099" y2="443.108" gradientUnits="userSpaceOnUse">
<stop stop-color="#341F12"/>
<stop offset="1" stop-color="#C56B30"/>
</linearGradient>
<linearGradient id="paint32_linear_16_4011" x1="373.261" y1="557.422" x2="397.159" y2="546.611" gradientUnits="userSpaceOnUse">
<stop stop-color="#DFA163"/>
<stop offset="1" stop-color="#CC7A3C"/>
</linearGradient>
<linearGradient id="paint33_linear_16_4011" x1="140.592" y1="326.221" x2="74.8177" y2="311.352" gradientUnits="userSpaceOnUse">
<stop stop-color="#DDA165"/>
<stop offset="1" stop-color="#BE5D28"/>
</linearGradient>
<linearGradient id="paint34_linear_16_4011" x1="174.311" y1="308.859" x2="170.007" y2="369.788" gradientUnits="userSpaceOnUse">
<stop stop-color="#FBE2A7"/>
<stop offset="1" stop-color="#FBE2A7" stop-opacity="0"/>
</linearGradient>
<linearGradient id="paint35_linear_16_4011" x1="90.5771" y1="304.715" x2="123.471" y2="331.645" gradientUnits="userSpaceOnUse">
<stop stop-color="#FBE2A7"/>
<stop offset="1" stop-color="#FBE2A7" stop-opacity="0"/>
</linearGradient>
<linearGradient id="paint36_linear_16_4011" x1="232.469" y1="367.706" x2="229.096" y2="415.439" gradientUnits="userSpaceOnUse">
<stop stop-color="#FBE2A7"/>
<stop offset="1" stop-color="#FBE2A7" stop-opacity="0"/>
</linearGradient>
<linearGradient id="paint37_linear_16_4011" x1="195.086" y1="351.043" x2="144.358" y2="351.043" gradientUnits="userSpaceOnUse">
<stop stop-color="#FCF9F6"/>
<stop offset="1" stop-color="#E5D5AF"/>
</linearGradient>
<linearGradient id="paint38_linear_16_4011" x1="173.955" y1="343.508" x2="170.12" y2="368.545" gradientUnits="userSpaceOnUse">
<stop stop-color="#010101"/>
<stop offset="1" stop-color="#86644C"/>
</linearGradient>
<linearGradient id="paint39_linear_16_4011" x1="99.5901" y1="240.497" x2="143.928" y2="320.503" gradientUnits="userSpaceOnUse">
<stop stop-color="#D59861"/>
<stop offset="0.86" stop-color="#FEDCB9"/>
<stop offset="1" stop-color="#FEDCB9" stop-opacity="0"/>
</linearGradient>
<linearGradient id="paint40_linear_16_4011" x1="118.702" y1="456.13" x2="103.615" y2="560.475" gradientUnits="userSpaceOnUse">
<stop stop-color="#4A2816"/>
<stop offset="1" stop-color="#010101"/>
</linearGradient>
<linearGradient id="paint41_linear_16_4011" x1="234.222" y1="517.03" x2="203.423" y2="517.03" gradientUnits="userSpaceOnUse">
<stop stop-color="#4A2816"/>
<stop offset="1" stop-color="#010101"/>
</linearGradient>
<linearGradient id="paint42_linear_16_4011" x1="78.8347" y1="569.529" x2="110.688" y2="458.036" gradientUnits="userSpaceOnUse">
<stop stop-color="#E5B740"/>
<stop offset="1" stop-color="#743C19"/>
</linearGradient>
<clipPath id="clip0_16_4011">
<rect width="508.51" height="840.749" fill="white" transform="translate(3.93066 230.514)"/>
</clipPath>
</defs>
</svg>
