<svg width="315" height="315" viewBox="0 0 315 315" fill="none" xmlns="http://www.w3.org/2000/svg">
<path d="M314.674 157.649C314.674 244.288 244.439 314.522 157.801 314.522C71.1617 314.522 0.927002 244.288 0.927002 157.649C0.927002 71.0101 71.1617 0.775391 157.801 0.775391C244.439 0.775391 314.674 71.0101 314.674 157.649ZM63.6764 157.649C63.6764 209.632 105.817 251.773 157.801 251.773C209.784 251.773 251.925 209.632 251.925 157.649C251.925 105.666 209.784 63.5248 157.801 63.5248C105.817 63.5248 63.6764 105.666 63.6764 157.649Z" fill="#6633CC" fill-opacity="0.17"/>
<path d="M250.009 30.7356C280.659 53.0048 302.216 85.6143 310.695 122.54C319.174 159.465 314.003 198.212 296.138 231.622L240.803 202.033C251.522 181.987 254.625 158.739 249.537 136.583C244.45 114.428 231.516 94.8625 213.125 81.5009L250.009 30.7356Z" fill="#F5C144"/>
<path d="M250.009 30.7356C270.293 45.4733 286.75 64.8585 297.999 87.2666C309.248 109.675 314.963 134.453 314.663 159.524L251.918 158.774C252.098 143.731 248.669 128.864 241.92 115.42C235.17 101.975 225.296 90.3435 213.125 81.5009L250.009 30.7356Z" fill="#9D4BAD"/>
</svg>
