<svg width="375" height="812" viewBox="0 0 375 812" fill="none" xmlns="http://www.w3.org/2000/svg">
<g clip-path="url(#clip0_1311_414)">
<rect width="375" height="812" fill="#110C24"/>
<path d="M304.632 -12.2701C304.632 -12.2701 304.82 42.7973 304.82 67.9761C304.82 93.1552 307.996 111.232 304.474 111.232C300.944 111.232 265.655 24.3685 232.066 -9.97582C198.47 -44.3201 173.122 -25.0432 173.122 -25.0432C173.122 -25.0432 205.303 9.77797 216.096 28.5429C226.888 47.3078 238.561 68.4256 253.177 85.4317C267.792 102.438 269.824 114.804 278.08 143.548C286.344 172.291 288 236.668 310.194 270.705C332.396 304.74 325.931 465.764 332.253 550.036C338.574 634.308 354.567 682.516 354.567 682.516L452.827 697.642L436.052 -18.5863L304.632 -12.2701Z" fill="url(#paint0_linear_1311_414)" fill-opacity="0.17"/>
<path d="M-947.538 610.789C-947.538 610.789 -908.052 599.352 -899.812 619.322C-899.812 619.322 -880.992 615.138 -873.433 639.494C-873.433 639.494 -864.114 628.283 -857.557 632.131C-857.557 632.131 -840.727 650.355 -852.698 667.556C-852.698 667.556 -832.277 663.474 -831.278 687.777C-831.278 687.777 -832.904 664.077 -816.208 662.574C-816.208 662.574 -794.903 676.964 -808.517 701.898C-808.517 701.898 -795.336 679.451 -780.076 687.634C-780.076 687.634 -773.146 710.17 -790.397 719.56C-790.397 719.56 -782.757 718.61 -782.832 730.562C-782.832 730.562 -782.865 707.914 -769.259 709.295C-769.259 709.295 -754.272 729.034 -767.503 744.551C-767.503 744.551 -758.984 744.098 -759.671 752.955C-759.671 752.955 -739.141 740.817 -737.056 765.043C-737.056 765.043 -736.017 767.176 -739.128 774.635C-739.128 774.635 -724.292 763.911 -712.457 782.112C-712.457 782.112 -701.055 774.671 -689.402 786.001C-689.402 786.001 -687.409 773.87 -673.274 784.056C-673.274 784.056 -686.399 778.44 -677.522 760.868C-677.522 760.868 -660.947 761.737 -660.883 782.786C-660.883 782.786 -648.553 765.882 -635.626 772.449C-635.626 772.449 -628.081 790.275 -641.082 793.971C-641.082 793.971 -629.138 785.471 -620.449 798.456C-620.449 798.456 -603.953 791.834 -595.962 805.085C-595.962 805.085 -593.404 801.466 -579.851 801.46C-542.694 801.442 -566.141 815.012 -541.75 805.313C-515.647 794.929 -505.837 811.249 -486.275 807.444C-466.712 803.646 -463.535 798.011 -452.919 801.238C-442.304 804.471 -425.346 800.064 -417.529 806.836C-409.712 813.603 -395.992 803.899 -391.274 805.53C-386.557 807.155 -371.292 807.649 -368.654 808.179C-366.017 808.703 -356.459 810.328 -350.042 809.895C-343.625 809.461 -336.985 808.751 -336.985 808.751C-336.985 808.751 -346.884 807.36 -342.964 798.101C-342.964 798.101 -330.537 796.012 -325.06 805.476L-321.912 809.269C-321.912 809.269 -322.123 793.357 -309.634 795.169C-309.634 795.169 -303.423 800.202 -306.119 809.347C-306.119 809.347 -295.454 805.596 -288.689 809.816C-281.924 814.036 -263.609 801.424 -251.024 805.921C-238.438 810.418 -222.964 801.659 -211.89 804.507C-200.815 807.354 -205.426 791.515 -191.426 795.055C-191.426 795.055 -176.758 790.811 -170.691 800.78C-170.691 800.78 -155.145 796.62 -145.654 802.797C-145.654 802.797 -138.961 798.902 -131.811 800.479C-131.811 800.479 -128.651 788.686 -115.939 797.836C-115.939 797.836 -111.431 779.92 -96.7393 790.787C-96.7393 790.787 -92.0567 775.965 -80.3503 778.753C-80.3503 778.753 -82.3064 760.741 -59.5556 766.911C-36.8048 773.076 -23.8225 764.721 -23.8225 764.721C-23.8225 764.721 -30.9667 761.732 -26.9703 750.265C-26.9703 750.265 -12.9346 749.579 -11.478 762.458C-11.478 762.458 -14.638 736.778 -5.99506 733.47C2.64784 730.161 9.82825 755.759 9.99075 759.573C9.99075 759.573 8.33557 745.758 20.03 749.578C20.03 749.578 22.9973 739.004 32.3504 747.601C32.3504 747.601 27.6438 739.219 32.5129 728.519C32.5129 728.519 49.9972 729.916 48.655 745.611C48.655 745.611 50.5329 735.386 63.9005 739.876C63.9005 739.876 67.7526 724.426 82.3059 731.256C82.3059 731.256 90.7862 716.702 99.9467 723.596C99.9467 723.596 96.5101 710.726 106.603 707.035C116.703 703.344 122.541 715.11 122.541 715.11C122.541 715.11 135.271 699.604 151.431 717.994C151.431 717.994 156.126 693.279 175.602 703.85C175.602 703.85 172.232 680.936 190.282 682.054C190.282 682.054 184.323 666.79 187.91 661.136C187.91 661.136 198.293 654.707 204.95 664.867C204.95 664.867 218.395 651.956 228.104 658.484C237.812 665.011 229.705 657.533 229.705 657.533C229.705 657.533 239.684 642.624 249.939 650.415C260.195 658.206 253.484 626.454 281.279 641.765C281.279 641.765 288.67 623.427 306.13 634.668C306.13 634.668 286.979 630.107 286.786 610.611C286.786 610.611 318.565 606.011 322.586 626.264C322.586 626.264 308.382 601.453 321.821 589.9C321.821 589.9 349.194 596.602 346.041 617.374C346.041 617.374 348.996 597.775 359.655 597.775C359.655 597.775 373.787 610.638 363.338 620.94C363.338 620.94 369.448 607.268 383.507 612.991C397.573 618.714 384.723 613.876 384.723 613.876C384.723 613.876 374.882 595.508 393.998 596.728C393.998 596.728 388.172 585.882 394.744 579.147C394.744 579.147 409.358 580.761 407.66 593.321C407.66 593.321 418.295 584.751 425.253 597.57C425.253 597.57 431.838 590.14 435.136 597.761C435.136 597.761 433.487 576.719 444.17 574.43C444.17 574.43 455.142 586.316 447.396 600.075C447.396 600.075 457.815 588.248 465.458 592.662C465.458 592.662 469.244 606.785 457.64 607.357C457.64 607.357 464.772 605.605 467.643 612.864C467.643 612.864 479.205 605.598 481.396 612.522L484.032 827.979L-947.671 833.126L-947.538 610.789Z" fill="url(#paint1_linear_1311_414)"/>
<path d="M1105.86 604.653C1105.86 604.653 1066.38 593.216 1058.14 613.186C1058.14 613.186 1039.32 609.002 1031.76 633.358C1031.76 633.358 1022.44 622.147 1015.88 625.994C1015.88 625.994 999.052 644.219 1011.02 661.419C1011.02 661.419 990.602 657.338 989.602 681.641C989.602 681.641 991.229 657.94 974.533 656.438C974.533 656.438 953.228 670.828 966.842 695.762C966.842 695.762 953.661 673.315 938.401 681.498C938.401 681.498 931.471 704.033 948.722 713.424C948.722 713.424 941.081 712.474 941.157 724.426C941.157 724.426 941.19 701.778 927.584 703.159C927.584 703.159 912.596 722.897 925.827 738.415C925.827 738.415 917.308 737.962 917.995 746.819C917.995 746.819 897.466 734.681 895.381 758.907C895.381 758.907 894.342 761.04 897.453 768.499C897.453 768.499 882.617 757.774 870.782 775.976C870.782 775.976 859.379 768.535 847.727 779.865C847.727 779.865 845.734 767.734 831.599 777.92C831.599 777.92 844.724 772.303 835.847 754.732C835.847 754.732 819.272 755.6 819.207 776.65C819.207 776.65 806.878 759.745 793.95 766.313C793.95 766.313 786.405 784.139 799.406 787.835C799.406 787.835 787.463 779.335 778.774 792.32C778.774 792.32 762.277 785.698 754.286 798.948C754.286 798.948 751.728 795.33 738.175 795.324C701.019 795.306 724.466 808.876 700.075 799.177C673.971 788.792 664.162 805.113 644.599 801.308C625.037 797.51 621.859 791.875 611.244 795.101C600.628 798.334 583.67 793.928 575.853 800.7C568.037 807.467 554.316 797.762 549.599 799.394C544.882 801.019 529.616 801.513 526.979 802.043C524.342 802.566 514.784 804.192 508.366 803.758C501.949 803.325 495.31 802.615 495.31 802.615C495.31 802.615 505.208 801.224 501.288 791.965C501.288 791.965 488.862 789.876 483.384 799.34L480.237 803.132C480.237 803.132 480.447 787.221 467.959 789.033C467.959 789.033 461.747 794.066 464.444 803.211C464.444 803.211 453.778 799.46 447.013 803.68C440.248 807.9 421.933 795.288 409.348 799.785C396.763 804.282 381.289 795.523 370.214 798.37C359.14 801.218 363.75 785.379 349.751 788.919C349.751 788.919 335.083 784.675 329.016 794.644C329.016 794.644 313.47 790.484 303.978 796.661C303.978 796.661 297.285 792.766 290.135 794.343C290.135 794.343 286.975 782.55 274.264 791.7C274.264 791.7 269.756 773.784 255.064 784.651C255.064 784.651 250.381 769.829 238.675 772.616C238.675 772.616 240.631 754.605 217.88 760.775C195.13 766.939 182.147 758.585 182.147 758.585C182.147 758.585 189.291 755.596 185.295 744.129C185.295 744.129 171.259 743.443 169.803 756.322C169.803 756.322 172.963 730.642 164.32 727.334C155.677 724.025 148.496 749.622 148.334 753.437C148.334 753.437 149.989 739.622 138.295 743.442C138.295 743.442 135.327 732.868 125.974 741.465C125.974 741.465 130.681 733.083 125.812 722.383C125.812 722.383 108.327 723.78 109.67 739.474C109.67 739.474 107.792 729.25 94.4242 733.74C94.4242 733.74 90.5721 718.29 76.0188 725.119C76.0188 725.119 67.5385 710.566 58.378 717.46C58.378 717.46 61.8147 704.59 51.7212 700.899C41.6218 697.208 35.7837 708.973 35.7837 708.973C35.7837 708.973 23.0541 693.468 6.89379 711.858C6.89379 711.858 2.19919 687.143 -17.2774 697.714C-17.2774 697.714 -13.907 674.8 -31.9571 675.918C-31.9571 675.918 -25.9985 660.654 -29.5857 654.999C-29.5857 654.999 -39.9681 648.571 -46.6248 658.731C-46.6248 658.731 -60.0707 645.82 -69.7789 652.348C-79.4871 658.875 -71.3799 651.397 -71.3799 651.397C-71.3799 651.397 -81.3589 636.488 -91.6148 644.279C-101.871 652.07 -95.1598 620.318 -122.954 635.628C-122.954 635.628 -130.345 617.291 -147.806 628.531C-147.806 628.531 -128.654 623.971 -128.462 604.475C-128.462 604.475 -160.24 599.875 -164.261 620.128C-164.261 620.128 -150.057 595.317 -163.497 583.763C-163.497 583.763 -190.87 590.466 -187.716 611.237C-187.716 611.237 -190.671 591.639 -201.33 591.639C-201.33 591.639 -215.462 604.502 -205.014 614.804C-205.014 614.804 -211.123 601.132 -225.183 606.855C-239.248 612.578 -226.398 607.74 -226.398 607.74C-226.398 607.74 -216.558 589.372 -235.673 590.591C-235.673 590.591 -229.847 579.746 -236.419 573.011C-236.419 573.011 -251.033 574.625 -249.336 587.185C-249.336 587.185 -259.971 578.615 -266.928 591.434C-266.928 591.434 -273.513 584.004 -276.811 591.624C-276.811 591.624 -275.162 570.582 -285.845 568.293C-285.845 568.293 -296.817 580.18 -289.071 593.939C-289.071 593.939 -299.49 582.111 -307.134 586.525C-307.134 586.525 -310.919 600.649 -299.315 601.221C-299.315 601.221 -306.447 599.469 -309.318 606.728C-309.318 606.728 -320.88 599.461 -323.071 606.386L-325.708 821.843L1106 826.99L1105.86 604.653Z" fill="url(#paint2_linear_1311_414)"/>
<path d="M131.594 -34.3256C131.594 -34.3256 126.539 -19.7172 114.224 -1.93211C93.5395 -6.99068 94.0771 6.3923 94.0771 6.3923C101.543 9.23182 107.497 5.65378 111.081 2.37364C107.394 7.35588 103.143 12.4741 98.2944 17.567C79.4904 7.50304 76.7016 20.6177 76.7016 20.6177C84.4912 26.113 92.4487 22.2503 96.3356 19.6535C91.9652 24.0745 87.1027 28.4079 81.776 32.5337C63.8791 20.7288 59.9121 33.576 59.9121 33.576C66.8103 39.437 74.5845 36.9073 78.875 34.7217C73.3781 38.7566 67.4375 42.57 60.9165 45.9481C45.4547 30.8261 39.1385 42.7779 39.1385 42.7779C44.9154 49.9436 53.1996 48.7713 57.7764 47.3951C55.2992 48.5996 52.8414 49.8235 50.2161 50.9026C46.5223 52.4209 42.9198 53.6984 39.4017 54.77C28.3357 37.0211 19.4092 46.8066 19.4092 46.8066C22.8261 54.3076 29.9233 55.8592 34.8002 55.961C28.0279 57.7071 21.6096 58.6979 15.5696 59.054C7.64271 38.6584 -3.09929 47.0484 -3.09929 47.0484C-0.147139 58.2898 11.4753 59.0544 14.4097 59.0888C13.0087 59.1539 11.5812 59.2888 10.2221 59.291C9.84445 59.2775 9.43504 59.2911 9.03002 59.2953C2.62906 59.2231 -3.27081 58.461 -8.6808 57.2908C-8.66087 57.2663 -8.6409 57.25 -8.62046 57.2253C-8.62046 57.2253 -10.7213 56.4274 -13.6909 56.0563C-20.2884 54.2159 -25.9551 51.8296 -30.7175 49.335C-31.8949 48.4169 -33.6807 47.1609 -36.4093 46.0771C-43.688 41.5274 -47.6163 37.5536 -47.6163 37.5536L-50.511 39.59C-50.511 39.59 -47.8436 41.8187 -42.9732 44.7921C-45.6856 44.7958 -48.5816 45.49 -51.4561 47.4979C-51.4561 47.4979 -48.7713 60.1657 -30.7523 51.097C-26.7801 52.845 -22.2915 54.4973 -17.2987 55.9319C-21.6653 56.0679 -26.7501 57.5317 -30.1963 62.8501C-30.1963 62.8501 -22.7805 73.8483 -9.21754 57.8996C-4.7373 58.8076 0.0516617 59.4414 5.10461 59.7393C1.0679 60.5189 -3.2507 62.5888 -5.88047 67.7661C-5.88047 67.7661 2.88196 78.2768 14.9727 59.899C14.9727 59.899 14.612 59.8339 14.5596 59.821C18.9322 59.6718 23.4573 59.2698 28.1464 58.4848C24.8217 60.0857 21.6763 62.8635 20.1875 67.6883C20.1875 67.6883 30.6038 76.557 39.399 56.3918C39.399 56.3918 38.4805 56.3938 37.7143 56.3911C41.7142 55.3445 45.7756 54.0584 49.9514 52.4532C47.3902 54.81 45.3013 58.1154 45.0746 62.8122C45.0746 62.8122 57.1293 68.6693 60.7739 47.7083C64.7245 45.7387 68.5573 43.6365 72.1804 41.3557C70.2117 44.1159 68.8568 47.6312 69.4919 52.1429C69.4919 52.1429 82.3538 55.6167 82.0779 34.5091C84.3503 32.7903 86.5073 30.99 88.6304 29.1873C87.5707 31.749 87.0905 34.7454 87.9092 38.2473C87.9092 38.2473 100.934 40.5335 98.8559 19.7212C102.248 16.2953 105.363 12.843 108.283 9.38515C107.287 12.6926 107.171 16.5457 109.325 20.6767C109.325 20.6767 122.334 19.6608 115.467 0.390067C130.128 -19.2742 137.015 -36.1685 137.015 -36.1685L131.594 -34.3256ZM-39.2269 30.5541C-42.2989 43.4323 -28.4418 50.05 -28.4418 50.05C-25.7599 28.2134 -39.2269 30.5541 -39.2269 30.5541ZM-23.3617 41.7465C-24.5393 42.0941 -25.253 42.5492 -25.253 42.5492C-23.2507 55.6373 -7.92317 56.5343 -7.92317 56.5343C-12.2249 40.6035 -19.8285 40.7035 -23.3617 41.7465Z" fill="url(#paint3_radial_1311_414)" fill-opacity="0.55"/>
<path d="M287.581 737.742C287.581 737.291 287.946 736.925 288.397 736.925C288.845 736.925 289.21 737.291 289.21 737.742C289.21 738.193 288.845 738.558 288.397 738.558C287.946 738.558 287.581 738.193 287.581 737.742Z" fill="#FCCA91"/>
<path opacity="0.0391503" d="M284.916 737.538C284.916 735.612 286.477 734.05 288.402 734.05C290.327 734.05 291.888 735.612 291.888 737.538C291.888 739.464 290.327 741.025 288.402 741.025C286.477 741.025 284.916 739.464 284.916 737.538Z" fill="#F8AC54"/>
<path opacity="0.0329471" d="M282.129 737.756C282.129 734.285 284.944 731.47 288.411 731.47C291.883 731.47 294.694 734.285 294.694 737.756C294.694 741.228 291.883 744.042 288.411 744.042C284.944 744.042 282.129 741.228 282.129 737.756Z" fill="#F8AC54"/>
<g filter="url(#filter0_f_1311_414)">
<path d="M287.28 737.742C287.28 737.125 287.777 736.625 288.398 736.625C289.013 736.625 289.511 737.125 289.511 737.742C289.511 738.359 289.013 738.859 288.398 738.859C287.777 738.859 287.28 738.359 287.28 737.742Z" fill="#F8AC54"/>
</g>
</g>
<defs>
<filter id="filter0_f_1311_414" x="281.097" y="730.442" width="14.5964" height="14.5993" filterUnits="userSpaceOnUse" color-interpolation-filters="sRGB">
<feFlood flood-opacity="0" result="BackgroundImageFix"/>
<feBlend mode="normal" in="SourceGraphic" in2="BackgroundImageFix" result="shape"/>
<feGaussianBlur stdDeviation="3.09135" result="effect1_foregroundBlur_1311_414"/>
</filter>
<linearGradient id="paint0_linear_1311_414" x1="599.097" y1="-278.661" x2="331.29" y2="697.645" gradientUnits="userSpaceOnUse">
<stop stop-color="#6633CC"/>
<stop offset="1"/>
</linearGradient>
<linearGradient id="paint1_linear_1311_414" x1="-324.491" y1="767.511" x2="-279.413" y2="229.001" gradientUnits="userSpaceOnUse">
<stop stop-color="#110C24"/>
<stop offset="1" stop-color="#6633CC"/>
</linearGradient>
<linearGradient id="paint2_linear_1311_414" x1="181.407" y1="887.586" x2="125.506" y2="253.99" gradientUnits="userSpaceOnUse">
<stop stop-color="#110C24"/>
<stop offset="1" stop-color="#6633CC"/>
</linearGradient>
<radialGradient id="paint3_radial_1311_414" cx="0" cy="0" r="1" gradientUnits="userSpaceOnUse" gradientTransform="translate(219.971 314.061) rotate(-123.342) scale(454.6 454.628)">
<stop stop-color="#FF9CAA"/>
<stop offset="0.396043" stop-color="#6633CC"/>
<stop offset="1"/>
</radialGradient>
<clipPath id="clip0_1311_414">
<rect width="375" height="812" fill="white"/>
</clipPath>
</defs>
</svg>
