<svg width="375" height="813" viewBox="0 0 375 813" fill="none" xmlns="http://www.w3.org/2000/svg">
<g clip-path="url(#clip0_1347_4558)">
<rect width="375" height="812" transform="translate(0 0.691406)" fill="#110C24"/>
<path d="M304.632 -11.5792C304.632 -11.5792 304.82 43.4882 304.82 68.667C304.82 93.8461 307.996 111.923 304.474 111.923C300.944 111.923 265.655 25.0595 232.066 -9.2849C198.47 -43.6292 173.122 -24.3523 173.122 -24.3523C173.122 -24.3523 205.303 10.4689 216.096 29.2338C226.888 47.9987 238.561 69.1165 253.177 86.1226C267.792 103.129 269.824 115.495 278.08 144.239C286.344 172.982 288 237.359 310.194 271.395C332.396 305.431 325.931 466.454 332.253 550.727C338.574 634.999 354.567 683.207 354.567 683.207L452.827 698.333L436.052 -17.8954L304.632 -11.5792Z" fill="url(#paint0_linear_1347_4558)" fill-opacity="0.17"/>
<path d="M-947.538 611.481C-947.538 611.481 -908.052 600.044 -899.812 620.014C-899.812 620.014 -880.992 615.83 -873.433 640.185C-873.433 640.185 -864.114 628.975 -857.557 632.822C-857.557 632.822 -840.727 651.046 -852.698 668.247C-852.698 668.247 -832.277 664.165 -831.278 688.469C-831.278 688.469 -832.904 664.768 -816.208 663.265C-816.208 663.265 -794.903 677.655 -808.517 702.589C-808.517 702.589 -795.336 680.143 -780.076 688.325C-780.076 688.325 -773.146 710.861 -790.397 720.252C-790.397 720.252 -782.757 719.302 -782.832 731.254C-782.832 731.254 -782.865 708.605 -769.259 709.987C-769.259 709.987 -754.272 729.725 -767.503 745.242C-767.503 745.242 -758.984 744.789 -759.671 753.647C-759.671 753.647 -739.141 741.509 -737.056 765.734C-737.056 765.734 -736.017 767.867 -739.128 775.326C-739.128 775.326 -724.292 764.602 -712.457 782.803C-712.457 782.803 -701.055 775.362 -689.402 786.692C-689.402 786.692 -687.409 774.562 -673.274 784.748C-673.274 784.748 -686.399 779.131 -677.522 761.559C-677.522 761.559 -660.947 762.428 -660.883 783.477C-660.883 783.477 -648.553 766.573 -635.626 773.141C-635.626 773.141 -628.081 790.967 -641.082 794.663C-641.082 794.663 -629.138 786.162 -620.449 799.148C-620.449 799.148 -603.953 792.526 -595.962 805.776C-595.962 805.776 -593.404 802.158 -579.851 802.152C-542.694 802.134 -566.141 815.703 -541.75 806.005C-515.647 795.62 -505.837 811.941 -486.275 808.136C-466.712 804.337 -463.535 798.702 -452.919 801.929C-442.303 805.162 -425.346 800.755 -417.529 807.528C-409.712 814.294 -395.992 804.59 -391.274 806.221C-386.557 807.847 -371.292 808.341 -368.654 808.87C-366.017 809.394 -356.459 811.02 -350.042 810.586C-343.625 810.153 -336.985 809.442 -336.985 809.442C-336.985 809.442 -346.884 808.052 -342.964 798.793C-342.964 798.793 -330.537 796.704 -325.06 806.167L-321.912 809.96C-321.912 809.96 -322.123 794.049 -309.634 795.861C-309.634 795.861 -303.422 800.894 -306.119 810.038C-306.119 810.038 -295.454 806.288 -288.689 810.508C-281.924 814.728 -263.609 802.116 -251.024 806.613C-238.438 811.11 -222.964 802.351 -211.89 805.198C-200.815 808.046 -205.426 792.207 -191.426 795.746C-191.426 795.746 -176.758 791.502 -170.691 801.472C-170.691 801.472 -155.145 797.312 -145.654 803.488C-145.654 803.488 -138.961 799.593 -131.81 801.171C-131.81 801.171 -128.651 789.377 -115.939 798.528C-115.939 798.528 -111.431 780.612 -96.7393 791.478C-96.7393 791.478 -92.0568 776.657 -80.3503 779.444C-80.3503 779.444 -82.3065 761.432 -59.5557 767.602C-36.8049 773.767 -23.8225 765.412 -23.8225 765.412C-23.8225 765.412 -30.9667 762.424 -26.9703 750.956C-26.9703 750.956 -12.9346 750.27 -11.478 763.149C-11.478 763.149 -14.6379 737.47 -5.99506 734.161C2.64783 730.853 9.82825 756.45 9.99072 760.264C9.99072 760.264 8.33557 746.449 20.03 750.269C20.03 750.269 22.9973 739.696 32.3503 748.293C32.3503 748.293 27.6438 739.91 32.5129 729.211C32.5129 729.211 49.9972 730.608 48.655 746.302C48.655 746.302 50.5329 736.077 63.9005 740.567C63.9005 740.567 67.7526 725.118 82.3059 731.947C82.3059 731.947 90.7863 717.393 99.9468 724.288C99.9468 724.288 96.51 711.417 106.604 707.726C116.703 704.035 122.541 715.801 122.541 715.801C122.541 715.801 135.271 700.296 151.431 718.686C151.431 718.686 156.125 693.971 175.602 704.542C175.602 704.542 172.232 681.627 190.282 682.745C190.282 682.745 184.323 667.482 187.91 661.827C187.91 661.827 198.293 655.398 204.95 665.558C204.95 665.558 218.395 652.648 228.104 659.175C237.812 665.703 229.705 658.225 229.705 658.225C229.705 658.225 239.684 643.315 249.939 651.106C260.195 658.898 253.484 627.146 281.279 642.456C281.279 642.456 288.67 624.119 306.13 635.359C306.13 635.359 286.979 630.798 286.786 611.303C286.786 611.303 318.565 606.703 322.586 626.956C322.586 626.956 308.382 602.145 321.821 590.591C321.821 590.591 349.194 597.293 346.041 618.065C346.041 618.065 348.996 598.467 359.655 598.467C359.655 598.467 373.787 611.33 363.339 621.631C363.339 621.631 369.448 607.96 383.507 613.682C397.573 619.406 384.723 614.567 384.723 614.567C384.723 614.567 374.882 596.199 393.998 597.419C393.998 597.419 388.172 586.573 394.744 579.838C394.744 579.838 409.358 581.452 407.66 594.013C407.66 594.013 418.296 585.443 425.253 598.262C425.253 598.262 431.838 590.831 435.136 598.452C435.136 598.452 433.487 577.41 444.17 575.121C444.17 575.121 455.142 587.007 447.396 600.766C447.396 600.766 457.815 588.939 465.458 593.353C465.458 593.353 469.244 607.477 457.64 608.048C457.64 608.048 464.772 606.296 467.643 613.555C467.643 613.555 479.205 606.289 481.396 613.213L484.032 828.671L-947.671 833.818L-947.538 611.481Z" fill="url(#paint1_linear_1347_4558)"/>
<path d="M1105.86 605.344C1105.86 605.344 1066.38 593.907 1058.14 613.877C1058.14 613.877 1039.32 609.693 1031.76 634.049C1031.76 634.049 1022.44 622.838 1015.88 626.685C1015.88 626.685 999.051 644.91 1011.02 662.11C1011.02 662.11 990.602 658.029 989.602 682.332C989.602 682.332 991.228 658.631 974.532 657.129C974.532 657.129 953.227 671.518 966.842 696.453C966.842 696.453 953.661 674.006 938.401 682.189C938.401 682.189 931.471 704.724 948.722 714.115C948.722 714.115 941.081 713.165 941.157 725.117C941.157 725.117 941.189 702.469 927.583 703.85C927.583 703.85 912.596 723.588 925.827 739.106C925.827 739.106 917.308 738.652 917.995 747.51C917.995 747.51 897.465 735.372 895.381 759.598C895.381 759.598 894.342 761.731 897.452 769.189C897.452 769.189 882.616 758.465 870.781 776.666C870.781 776.666 859.379 769.226 847.727 780.555C847.727 780.555 845.733 768.425 831.598 778.611C831.598 778.611 844.723 772.994 835.846 755.423C835.846 755.423 819.271 756.291 819.207 777.341C819.207 777.341 806.878 760.436 793.95 767.004C793.95 767.004 786.405 784.83 799.406 788.526C799.406 788.526 787.462 780.026 778.773 793.011C778.773 793.011 762.277 786.389 754.286 799.639C754.286 799.639 751.728 796.021 738.175 796.015C701.018 795.997 724.466 809.566 700.075 799.868C673.971 789.483 664.161 805.804 644.599 801.999C625.037 798.2 621.859 792.566 611.244 795.792C600.628 799.025 583.67 794.618 575.853 801.391C568.036 808.158 554.316 798.453 549.599 800.085C544.881 801.71 529.616 802.204 526.978 802.734C524.341 803.257 514.783 804.883 508.366 804.449C501.949 804.016 495.31 803.305 495.31 803.305C495.31 803.305 505.208 801.915 501.288 792.656C501.288 792.656 488.861 790.567 483.384 800.031L480.236 803.823C480.236 803.823 480.447 787.912 467.958 789.724C467.958 789.724 461.747 794.757 464.443 803.901C464.443 803.901 453.778 800.151 447.013 804.371C440.248 808.591 421.933 795.979 409.348 800.476C396.763 804.973 381.288 796.214 370.214 799.061C359.14 801.909 363.75 786.07 349.75 789.61C349.75 789.61 335.083 785.366 329.016 795.335C329.016 795.335 313.469 791.175 303.978 797.352C303.978 797.352 297.285 793.457 290.135 795.034C290.135 795.034 286.975 783.24 274.263 792.391C274.263 792.391 269.755 774.475 255.064 785.341C255.064 785.341 250.381 770.52 238.674 773.307C238.674 773.307 240.631 755.296 217.88 761.466C195.129 767.63 182.147 759.276 182.147 759.276C182.147 759.276 189.291 756.287 185.294 744.819C185.294 744.819 171.259 744.134 169.802 757.013C169.802 757.013 172.962 731.333 164.319 728.025C155.676 724.716 148.496 750.313 148.333 754.128C148.333 754.128 149.989 740.313 138.294 744.133C138.294 744.133 135.327 733.559 125.974 742.156C125.974 742.156 130.68 733.774 125.811 723.074C125.811 723.074 108.327 724.471 109.669 740.165C109.669 740.165 107.791 729.941 94.4238 734.431C94.4238 734.431 90.5717 718.981 76.0183 725.81C76.0183 725.81 67.538 711.257 58.3774 718.151C58.3774 718.151 61.8142 705.281 51.7207 701.59C41.6213 697.899 35.7832 709.664 35.7832 709.664C35.7832 709.664 23.0536 694.159 6.89331 712.549C6.89331 712.549 2.19873 687.834 -17.278 698.405C-17.278 698.405 -13.9075 675.491 -31.9576 676.608C-31.9576 676.608 -25.999 661.345 -29.5862 655.69C-29.5862 655.69 -39.9686 649.261 -46.6254 659.422C-46.6254 659.422 -60.0712 646.511 -69.7794 653.038C-79.4875 659.566 -71.3804 652.088 -71.3804 652.088C-71.3804 652.088 -81.3594 637.178 -91.6152 644.97C-101.871 652.761 -95.1603 621.009 -122.955 636.319C-122.955 636.319 -130.346 617.982 -147.806 629.222C-147.806 629.222 -128.655 624.661 -128.462 605.166C-128.462 605.166 -160.241 600.566 -164.261 620.819C-164.261 620.819 -150.057 596.008 -163.497 584.454C-163.497 584.454 -190.87 591.156 -187.716 611.928C-187.716 611.928 -190.672 592.33 -201.331 592.33C-201.331 592.33 -215.463 605.193 -205.014 615.495C-205.014 615.495 -211.123 601.823 -225.183 607.546C-239.249 613.269 -226.399 608.431 -226.399 608.431C-226.399 608.431 -216.558 590.063 -235.674 591.282C-235.674 591.282 -229.848 580.436 -236.42 573.702C-236.42 573.702 -251.033 575.316 -249.336 587.876C-249.336 587.876 -259.971 579.306 -266.929 592.125C-266.929 592.125 -273.513 584.694 -276.812 592.315C-276.812 592.315 -275.163 571.273 -285.846 568.984C-285.846 568.984 -296.818 580.871 -289.072 594.629C-289.072 594.629 -299.49 582.802 -307.134 587.216C-307.134 587.216 -310.92 601.34 -299.316 601.911C-299.316 601.911 -306.448 600.16 -309.319 607.419C-309.319 607.419 -320.881 600.152 -323.072 607.077L-325.708 822.534L1106 827.681L1105.86 605.344Z" fill="url(#paint2_linear_1347_4558)"/>
<path d="M131.594 -33.6337C131.594 -33.6337 126.539 -19.0253 114.224 -1.24022C93.5395 -6.29878 94.0771 7.08419 94.0771 7.08419C101.543 9.92371 107.497 6.34568 111.081 3.06553C107.394 8.04777 103.143 13.166 98.2944 18.2589C79.4904 8.19494 76.7016 21.3096 76.7016 21.3096C84.4912 26.8049 92.4487 22.9422 96.3356 20.3454C91.9652 24.7664 87.1027 29.0998 81.776 33.2256C63.8791 21.4207 59.9121 34.2679 59.9121 34.2679C66.8103 40.1289 74.5845 37.5992 78.875 35.4136C73.3781 39.4485 67.4375 43.2619 60.9165 46.64C45.4547 31.518 39.1385 43.4698 39.1385 43.4698C44.9154 50.6355 53.1996 49.4632 57.7764 48.087C55.2992 49.2915 52.8414 50.5154 50.2161 51.5945C46.5223 53.1128 42.9198 54.3903 39.4017 55.4619C28.3357 37.713 19.4092 47.4985 19.4092 47.4985C22.8261 54.9995 29.9233 56.5511 34.8002 56.6528C28.0279 58.399 21.6096 59.3898 15.5696 59.7459C7.64271 39.3503 -3.09929 47.7403 -3.09929 47.7403C-0.147137 58.9817 11.4753 59.7463 14.4097 59.7807C13.0087 59.8458 11.5812 59.9807 10.2221 59.9829C9.84445 59.9694 9.43504 59.983 9.03002 59.9872C2.62906 59.915 -3.27081 59.1529 -8.6808 57.9827C-8.66087 57.9582 -8.6409 57.9419 -8.62046 57.9172C-8.62046 57.9172 -10.7213 57.1193 -13.6909 56.7482C-20.2884 54.9078 -25.9551 52.5215 -30.7175 50.0269C-31.8949 49.1088 -33.6807 47.8528 -36.4093 46.769C-43.688 42.2193 -47.6163 38.2455 -47.6163 38.2455L-50.511 40.2819C-50.511 40.2819 -47.8436 42.5106 -42.9732 45.484C-45.6856 45.4877 -48.5816 46.1819 -51.4561 48.1898C-51.4561 48.1898 -48.7713 60.8576 -30.7523 51.7889C-26.7801 53.5369 -22.2915 55.1892 -17.2987 56.6237C-21.6653 56.7598 -26.7501 58.2236 -30.1963 63.542C-30.1963 63.542 -22.7805 74.5402 -9.21754 58.5915C-4.7373 59.4995 0.051663 60.1333 5.10461 60.4312C1.0679 61.2108 -3.2507 63.2807 -5.88047 68.458C-5.88047 68.458 2.88196 78.9687 14.9727 60.5909C14.9727 60.5909 14.612 60.5258 14.5596 60.5129C18.9322 60.3637 23.4573 59.9617 28.1464 59.1767C24.8218 60.7776 21.6763 63.5554 20.1875 68.3802C20.1875 68.3802 30.6038 77.2489 39.399 57.0837C39.399 57.0837 38.4805 57.0857 37.7143 57.083C41.7142 56.0364 45.7756 54.7503 49.9514 53.1451C47.3902 55.5019 45.3013 58.8073 45.0746 63.5041C45.0746 63.5041 57.1293 69.3612 60.7739 48.4001C64.7245 46.4305 68.5573 44.3284 72.1804 42.0476C70.2117 44.8078 68.8568 48.323 69.4919 52.8347C69.4919 52.8347 82.3538 56.3086 82.0779 35.201C84.3503 33.4822 86.5073 31.6819 88.6304 29.8792C87.5707 32.4409 87.0905 35.4373 87.9092 38.9392C87.9092 38.9392 100.934 41.2254 98.8559 20.4131C102.248 16.9872 105.363 13.5349 108.283 10.077C107.287 13.3845 107.171 17.2376 109.325 21.3685C109.325 21.3685 122.334 20.3527 115.467 1.08196C130.128 -18.5823 137.015 -35.4766 137.015 -35.4766L131.594 -33.6337ZM-39.2269 31.246C-42.2989 44.1242 -28.4418 50.7419 -28.4418 50.7419C-25.7599 28.9053 -39.2269 31.246 -39.2269 31.246ZM-23.3617 42.4384C-24.5393 42.786 -25.253 43.2411 -25.253 43.2411C-23.2507 56.3292 -7.92317 57.2262 -7.92317 57.2262C-12.2249 41.2954 -19.8285 41.3954 -23.3617 42.4384Z" fill="url(#paint3_radial_1347_4558)" fill-opacity="0.55"/>
<path d="M111.595 269.169H87.026V245.459H29.4688V226.388L84.1052 154.055H111.595V224.155H129.292V245.459H111.595V269.169ZM55.5843 224.155H87.026V183.091L55.5843 224.155Z" fill="url(#paint4_linear_1347_4558)"/>
<path d="M187.225 270.716C154.409 270.716 136.197 245.803 136.197 211.44C136.197 177.25 154.409 152.337 187.225 152.337C220.041 152.337 238.081 177.25 238.081 211.44C238.081 245.803 220.041 270.716 187.225 270.716ZM187.225 246.834C204.922 246.834 212.31 233.089 212.31 211.44C212.31 189.964 204.922 176.047 187.225 176.047C169.528 176.047 162.14 189.964 162.14 211.44C162.14 233.089 169.528 246.834 187.225 246.834Z" fill="url(#paint5_linear_1347_4558)"/>
<path d="M328.286 269.169H303.717V245.459H246.159V226.388L300.796 154.055H328.286V224.155H345.982V245.459H328.286V269.169ZM272.275 224.155H303.717V183.091L272.275 224.155Z" fill="url(#paint6_linear_1347_4558)"/>
<path d="M230.901 600.07C230.901 600.07 208.913 592.414 220.841 572.22C222.393 569.59 228.767 577.885 222.597 567.841C216.427 557.798 231.577 548.567 238.423 550.678C245.269 552.789 228.511 556.223 240.277 568.599C244.712 573.263 240.766 576.897 242.288 576.753C243.815 576.608 246.74 574.901 243.232 569.654C239.724 564.407 243.734 564.441 245.108 566.118C246.481 567.794 249.751 570.612 251.124 584.775C251.698 590.703 249.475 594.584 246.256 597.499C243.437 600.049 240.341 602.193 230.897 600.07H230.901Z" fill="url(#paint7_radial_1347_4558)"/>
<path d="M243.351 543.213C243.878 542.864 242.96 543.192 242.841 543.298C242.296 543.779 241.914 544.669 241.807 545.397C241.578 546.941 241.688 552.21 244.061 551.75C244.414 551.682 244.491 551.282 244.529 550.972C244.69 549.695 244.393 548.384 244.559 547.12C244.716 545.916 245.902 544.431 245.6 543.226C245.094 541.183 242.484 543.784 243.351 543.209V543.213Z" fill="url(#paint8_linear_1347_4558)"/>
<path d="M223.536 543.848C223.957 543.354 229.358 540.945 227.482 539.094C223.37 535.038 222.452 545.12 223.536 543.848Z" fill="url(#paint9_linear_1347_4558)"/>
<path d="M235.242 534.395C234.554 532.327 235.561 531.403 236.182 533.076C236.463 533.833 235.612 535.514 235.242 534.395Z" fill="url(#paint10_linear_1347_4558)"/>
<path d="M216.483 565.402C217.031 563.296 218.383 563.07 217.992 564.811C217.813 565.598 216.185 566.543 216.483 565.402Z" fill="url(#paint11_linear_1347_4558)"/>
<path d="M251.613 561.7C251.205 561.057 249.942 558.534 251.302 558.44C251.451 558.432 251.919 558.359 252.034 558.508C252.629 559.287 252.684 563.385 251.613 561.7Z" fill="url(#paint12_linear_1347_4558)"/>
<path d="M238.381 539.281C238.976 539.281 240.622 539.924 241.141 539.553C242.586 538.511 241.119 536.404 239.682 536.626C237.327 536.983 237.99 540.132 240.55 539.749" fill="url(#paint13_linear_1347_4558)"/>
<path d="M90.6053 813.525L84.9755 846.481L64.1484 844.957L66.2022 809.562C66.2022 809.562 79.3966 811.78 90.6053 813.525Z" fill="url(#paint14_linear_1347_4558)"/>
<path d="M146.321 810.72L147.129 843.927L127.718 846.396L123.186 811.494C123.186 811.494 135.708 811.145 146.326 810.72H146.321Z" fill="url(#paint15_linear_1347_4558)"/>
<path d="M137.277 671.298C137.277 671.298 145.42 721.184 148.584 737.096C151.747 753.008 155.213 792.085 153.691 801.745C152.164 811.406 149.46 813.929 143.702 815.87C137.945 817.819 125.452 825.769 120.43 818.947C115.409 812.125 86.545 730.747 106.551 693.215C126.558 655.688 137.277 671.298 137.277 671.298Z" fill="url(#paint16_linear_1347_4558)"/>
<path d="M126.439 695.854C126.439 695.854 117.535 708.532 115.243 722.631C112.951 736.722 109.009 773.125 108.49 778.913C107.967 784.701 105.79 793.042 104.574 804.796C103.358 816.547 102.329 815.61 93.3231 817.657C84.3128 819.704 78.8105 823.232 66.2071 812.78C53.6037 802.328 54.2246 805.652 61.5 763.235C68.7712 720.818 63.0137 704.54 72.1729 687.177C81.3363 669.813 125.826 683.07 126.439 695.858V695.854Z" fill="url(#paint17_linear_1347_4558)"/>
<path d="M63.4214 585.413C63.4214 585.413 36.9731 581.561 28.8982 610.607C20.8234 639.648 45.9876 636.814 45.9876 636.814C45.9876 636.814 77.6916 598.04 63.2896 583.383L63.4214 585.413Z" fill="url(#paint18_linear_1347_4558)"/>
<path d="M47.3743 634.575C47.3743 634.575 31.0461 615.08 27.5933 629.719C24.1448 644.359 -4.97813 728.41 40.724 734.559C86.4303 740.709 47.3743 634.575 47.3743 634.575Z" fill="url(#paint19_linear_1347_4558)"/>
<path d="M117.322 526.007C117.322 526.007 131.805 515.597 135.602 524.458C139.399 533.314 148.579 550.481 138.421 553.082C128.263 555.682 113.053 548.06 117.322 526.007Z" fill="#151226"/>
<path d="M112.343 576.336C112.343 576.336 112.36 582.111 112.521 583.741C112.521 583.741 100.845 589.18 93.6248 582.319C93.6248 582.319 93.8162 578.664 93.6291 576.434C93.442 574.204 89.4747 577.306 89.2323 578.855C88.99 580.408 89.564 583.153 88.5562 584.698C87.5485 586.247 83.7853 589.605 82.8329 591.533C81.8804 593.457 76.4121 626.409 76.4121 626.409L137.788 624.643C137.788 624.643 131.222 593.959 118.997 588.596C118.997 588.596 117.905 589.158 118.228 580.821C118.228 580.821 119.201 576.319 112.343 576.336Z" fill="url(#paint20_linear_1347_4558)"/>
<path d="M219.705 669.724C218.213 669.298 215.236 668.204 213.102 665.464C208.582 659.667 212.145 652.058 212.396 651.543C216.618 648.36 219.88 650.16 219.88 650.16C224.238 648.747 229.626 647.402 235.889 646.687C240.779 646.13 244.13 645.794 247.957 645.968C248.131 646.075 248.718 646.453 248.909 647.202C249.088 647.896 248.816 648.483 248.722 648.679C248.029 650.173 246.009 650.586 245.848 650.615C246.736 651.309 247.119 652.42 246.843 653.526C246.422 655.22 244.704 655.914 244.606 655.952C244.938 656.459 245.295 657.216 245.065 658.042C244.938 658.501 244.593 658.974 244.202 659.535C243.985 659.846 242.935 660.246 242.79 660.421C242.85 660.616 244.091 661.821 243.147 663.119C242.323 664.251 240.809 664.881 239.312 664.706C239.486 665.255 239.809 666.579 239.036 667.46C238.381 668.204 237.237 668.302 235.06 668.294C231.726 668.285 229.226 668.043 228.869 668.013C226.811 667.826 223.783 668 219.701 669.724H219.705Z" fill="url(#paint21_linear_1347_4558)"/>
<path d="M133.45 640.219C133.45 640.219 117.403 608.62 149.94 610.522C149.94 610.522 151.828 612.739 159.605 615.646C167.382 618.553 163.356 619.31 165.065 620.37C166.774 621.429 170.049 623.557 171.647 625.966C173.25 628.375 173.786 631.196 179.408 633.494C185.029 635.793 197.836 639.938 203.981 643.866C210.125 647.789 212.893 649.024 216.312 649.185C219.726 649.347 221.525 647.734 223.047 654.982C224.57 662.229 227.976 663.919 226.139 667.991C224.302 672.064 221.921 673.46 215.687 671.273C209.458 669.085 206.039 676.503 195.17 672.068C184.302 667.634 178.727 668.821 174.343 665.812C169.959 662.799 156.931 663.68 149.847 654.833C142.767 645.985 134.263 646.432 133.442 640.214L133.45 640.219Z" fill="url(#paint22_linear_1347_4558)"/>
<path d="M133.45 640.219C133.45 640.219 117.403 608.62 149.94 610.522C149.94 610.522 151.828 612.739 159.605 615.646C167.382 618.553 163.356 619.31 165.065 620.37C166.774 621.429 170.049 623.557 171.647 625.966C173.25 628.375 173.786 631.196 179.408 633.494C185.029 635.793 197.836 639.938 203.981 643.866C210.125 647.789 212.893 649.024 216.312 649.185C219.726 649.347 221.525 647.734 223.047 654.982C224.57 662.229 227.976 663.919 226.139 667.991C224.302 672.064 221.921 673.46 215.687 671.273C209.458 669.085 206.039 676.503 195.17 672.068C184.302 667.634 178.727 668.821 174.343 665.812C169.959 662.799 156.931 663.68 149.847 654.833C142.767 645.985 134.263 646.432 133.442 640.214L133.45 640.219Z" fill="url(#paint23_linear_1347_4558)"/>
<path d="M130.538 591.601C130.538 591.601 136.937 595.686 138.527 596.597C140.113 597.508 142.014 599.248 142.941 600.414C143.872 601.585 146.589 604.508 151.939 608.781C157.288 613.054 180.33 624.527 179.446 631.149C178.557 637.767 173.204 632.519 170.066 646.423C166.927 660.322 154.111 668.004 151.156 661.565C148.201 655.126 132.91 648.695 130.384 638.243C127.859 627.791 119.567 593.311 130.538 591.605V591.601Z" fill="url(#paint24_linear_1347_4558)"/>
<path d="M130.538 591.601C130.538 591.601 136.937 595.686 138.527 596.597C140.113 597.508 142.014 599.248 142.941 600.414C143.872 601.585 146.589 604.508 151.939 608.781C157.288 613.054 180.33 624.527 179.446 631.149C178.557 637.767 173.204 632.519 170.066 646.423C166.927 660.322 154.111 668.004 151.156 661.565C148.201 655.126 132.91 648.695 130.384 638.243C127.859 627.791 119.567 593.311 130.538 591.605V591.601Z" fill="url(#paint25_linear_1347_4558)"/>
<path d="M93.3359 575.497C93.3359 575.497 89.8151 576.6 89.1773 579.426C88.5394 582.251 90.1723 583.558 87.0002 587.375C82.9606 592.24 75.6001 594.312 111.39 610.258C111.39 610.258 130.074 599.202 125.023 593.857C119.929 588.465 118.458 588.375 118.458 588.375C118.458 588.375 118.015 586.728 118.1 585.052C118.283 581.341 118.321 575.885 112.228 576.434C112.228 576.434 112.913 571.046 113.487 570.203C114.065 569.361 129.79 574.557 135.058 583.732C135.058 583.732 137.01 586.001 136.236 591.937C135.462 597.874 141.202 601.126 120.579 609.96L111.225 614.157C111.225 614.157 79.4101 619.566 64.5276 611.42C62.1804 610.135 58.3024 600.517 59.931 594.712C60.3987 593.048 61.2279 590.763 62.5843 587.639C68.6819 573.642 63.3965 569.654 93.1062 568.429C93.1062 568.429 93.7186 572.229 93.3359 575.497Z" fill="url(#paint26_linear_1347_4558)"/>
<path d="M132.795 603.887C132.795 603.887 155.489 696.769 150.629 711.851C150.629 711.851 153.963 723.439 151.037 727.729C148.005 732.176 138.481 729.35 125.286 730.64C99.3608 733.172 53.7565 742.965 53.9819 735.977C54.2073 728.989 33.0231 615.42 70.544 603.168C70.544 603.168 110.548 613.718 111.985 613.718C113.423 613.718 132.795 603.887 132.795 603.887Z" fill="url(#paint27_linear_1347_4558)"/>
<path d="M132.795 603.887C132.795 603.887 155.489 696.769 150.629 711.851C150.629 711.851 153.963 723.439 151.037 727.729C148.005 732.176 138.481 729.35 125.286 730.64C99.3608 733.172 53.7565 742.965 53.9819 735.977C54.2073 728.989 33.0231 615.42 70.544 603.168C70.544 603.168 110.548 613.718 111.985 613.718C113.423 613.718 132.795 603.887 132.795 603.887Z" fill="url(#paint28_linear_1347_4558)"/>
<path d="M73.4905 738.928C72.4232 740.647 71.0923 742.532 69.4382 744.456C66.3809 748.009 63.2131 750.546 60.5938 752.316L62.5285 759.853C62.5285 759.853 73.3927 756.844 76.5138 741.158C75.506 740.413 74.494 739.672 73.4863 738.928H73.4905Z" fill="url(#paint29_linear_1347_4558)"/>
<path d="M41.5571 650.734C41.5571 650.734 64.3571 618.884 79.0611 651.802C79.0611 651.802 77.8492 654.785 78.959 663.901C80.0688 673.017 77.2752 669.451 77.1093 671.668C76.9435 673.885 76.5225 678.183 74.9748 680.984C73.4312 683.784 70.9352 685.75 71.5475 692.44C72.1556 699.13 74.6176 713.817 73.899 721.847C73.1803 729.878 73.3802 733.227 74.962 736.661C76.5438 740.096 79.0398 741.041 72.7084 746.228C66.3769 751.416 66.4619 755.621 61.5337 755.889C56.6055 756.157 54.0287 754.531 52.9954 747.301C51.9664 740.07 42.9561 740.492 41.7697 727.563C40.5834 714.634 36.5778 709.765 37.2965 703.926C38.0151 698.087 30.5185 685.746 35.5828 674.285C40.6472 662.829 35.8805 654.704 41.5571 650.738V650.734Z" fill="url(#paint30_linear_1347_4558)"/>
<path d="M122.854 507.813C122.854 507.813 126.039 498.979 139.471 500.672C139.471 500.672 142.184 501.285 147.117 500.238C147.117 500.238 145.365 505.962 144.897 510.933C144.429 515.904 141.58 521.045 138.298 521.045C138.298 521.045 120.868 511.482 122.854 507.813Z" fill="url(#paint31_linear_1347_4558)"/>
<path d="M119.168 510.129C119.168 510.129 123.692 504.737 118.832 495.89C118.832 495.89 114.814 490.783 120.159 492.604C120.159 492.604 122.085 493.66 123.169 496.89C123.169 496.89 128.548 489.361 119.147 476.237C119.147 476.237 111.642 468.074 119.631 471.16C119.631 471.16 122.17 472.032 125.053 476.811C125.053 476.811 125.419 472.466 128.336 475.015C131.253 477.564 127.46 477.198 127.97 483.25C128.48 489.302 128.846 502.988 124.177 510.938C119.508 518.888 117.254 512.721 119.172 510.129H119.168Z" fill="url(#paint32_linear_1347_4558)"/>
<path d="M93.6592 583.362C93.6592 583.362 103.805 592.941 112.581 583.74C112.581 583.74 111.187 573.403 114.41 569.186C115.609 567.62 140.19 575.093 149.549 570.441C149.549 570.441 157.824 570.45 157.888 564.747C157.947 559.044 142.912 554.942 141.453 531.208C139.999 507.473 107.632 498.647 91.4948 514.768C75.3579 530.893 86.371 545.698 90.3595 554.921C94.348 564.143 93.6592 583.357 93.6592 583.357V583.362Z" fill="url(#paint33_linear_1347_4558)"/>
<path d="M93.6592 583.362C93.6592 583.362 103.805 592.941 112.581 583.74C112.581 583.74 111.187 573.403 114.41 569.186C115.609 567.62 140.19 575.093 149.549 570.441C149.549 570.441 157.824 570.45 157.888 564.747C157.947 559.044 142.912 554.942 141.453 531.208C139.999 507.473 107.632 498.647 91.4948 514.768C75.3579 530.893 86.371 545.698 90.3595 554.921C94.348 564.143 93.6592 583.357 93.6592 583.357V583.362Z" fill="url(#paint34_linear_1347_4558)"/>
<path d="M247.314 594.133C246.783 594.125 246.404 594.031 246.086 593.72C245.826 593.474 245.673 593.103 245.677 592.75C245.69 592.044 246.268 591.482 246.974 591.495C247.127 591.495 247.276 591.529 247.412 591.58C247.638 591.58 248.003 591.554 248.224 591.542C249.075 591.486 249.504 591.461 249.942 591.878C250.202 592.125 250.346 592.474 250.338 592.831C250.325 593.537 249.747 594.099 249.041 594.086C248.969 594.086 248.901 594.078 248.832 594.065C248.713 594.069 248.531 594.082 248.382 594.091C247.961 594.116 247.612 594.138 247.31 594.133H247.314ZM247.791 592.788C247.786 593.154 247.923 593.448 248.114 593.661C247.91 593.431 247.786 593.125 247.791 592.788ZM248.199 592.491C248.22 592.588 248.233 592.691 248.229 592.797C248.229 592.691 248.22 592.588 248.199 592.491ZM236.114 682.938C235.757 682.933 235.417 682.861 235.111 682.559C234.856 682.312 234.711 681.963 234.72 681.61C234.72 681.513 234.788 681.157 234.924 680.542C234.953 680.401 234.987 680.257 235.017 680.112C234.928 679.925 234.881 679.716 234.885 679.495C234.885 679.337 234.885 679.312 235.162 678.086C234.919 678.086 234.605 678.031 234.307 677.767C234.031 677.52 233.873 677.163 233.878 676.792C233.886 676.311 234.026 676.082 234.588 675.592C234.337 675.333 234.197 674.984 234.205 674.622C234.214 674.15 234.392 673.835 235.251 672.72C235.085 672.728 234.945 672.741 234.847 672.745C234.052 672.8 233.691 672.822 233.274 672.426C233.014 672.179 232.87 671.834 232.878 671.477C232.887 670.885 233.189 670.49 233.967 669.928C233.699 669.856 233.482 669.736 233.295 669.562C233.01 669.294 232.849 668.919 232.857 668.528C232.87 667.889 233.189 667.438 234.282 666.685C233.112 666.664 232.691 666.511 232.338 666.17C232.071 665.91 231.917 665.544 231.926 665.174C231.93 664.851 231.99 664.617 232.126 664.429C232.113 664.417 232.1 664.404 232.083 664.391C231.832 664.144 231.688 663.791 231.692 663.438C231.705 662.753 232.113 662.285 232.968 661.808C232.321 661.736 231.922 661.57 231.62 661.284C231.314 660.999 231.152 660.612 231.156 660.204C231.165 659.812 231.292 659.535 231.513 659.318C231.479 659.289 231.441 659.259 231.407 659.229C231.11 658.952 230.944 658.565 230.952 658.165C230.961 657.71 231.097 657.382 231.441 657.118C231.369 657.067 231.297 657.007 231.22 656.935C230.961 656.688 230.812 656.339 230.82 655.982C230.829 655.59 230.965 655.309 231.173 655.105C230.888 655.063 230.752 654.956 230.552 654.765C230.297 654.518 230.153 654.173 230.157 653.816C230.17 653.165 230.489 652.773 231.326 652.403C230.778 652.377 230.552 652.262 230.293 652.015C230.034 651.769 229.885 651.411 229.889 651.054C229.893 650.76 229.949 650.526 230.076 650.322C229.753 650.22 229.592 650.092 229.443 649.943C229.175 649.679 229.03 649.326 229.034 648.956C229.043 648.432 229.243 648.053 229.668 647.764C229.583 647.709 229.515 647.645 229.447 647.585C229.158 647.309 229.005 646.938 229.013 646.551C229.03 645.47 230.008 645.287 230.791 645.138C231.186 645.062 231.722 644.972 232.338 644.866C229.107 645.083 228.826 645.091 228.329 644.619C228.069 644.372 227.92 644.015 227.925 643.657C227.937 643.023 228.176 642.623 228.86 642.325C228.656 642.257 228.558 642.159 228.418 642.019C228.176 641.776 228.039 641.436 228.044 641.091C228.052 640.495 228.316 640.078 228.869 639.767C228.201 639.67 228.052 639.521 227.844 639.308C227.602 639.065 227.453 638.704 227.457 638.355C227.47 637.682 227.852 637.312 228.401 637.082C227.563 637.001 227.078 636.81 226.73 636.482C226.411 636.184 226.237 635.78 226.245 635.35C226.249 635.073 226.3 634.835 226.411 634.622C226.364 634.584 226.313 634.541 226.266 634.495C226.007 634.248 225.854 633.878 225.858 633.524C225.871 632.746 226.266 632.226 227.363 631.826C226.9 631.745 226.632 631.601 226.402 631.384C226.122 631.116 225.964 630.745 225.973 630.362C225.99 629.486 226.458 628.992 227.903 628.626C226.585 628.622 226.066 628.456 225.68 628.094C225.395 627.826 225.237 627.447 225.242 627.064C225.259 626.111 226.02 625.664 227.121 625.383C225.82 625.345 225.182 625.149 224.765 624.758C224.451 624.464 224.281 624.068 224.289 623.643C224.298 623.272 224.408 623.004 224.587 622.813C224.374 622.719 224.208 622.608 224.072 622.476C223.77 622.187 223.604 621.8 223.613 621.391C223.626 620.583 224.132 620.183 225.037 619.94C224.37 619.812 223.996 619.629 223.732 619.374C223.443 619.089 223.286 618.714 223.29 618.314C223.294 617.965 223.383 617.684 223.57 617.455C223.549 617.433 223.528 617.412 223.507 617.391C223.26 617.144 223.124 616.804 223.128 616.459C223.137 615.986 223.29 615.633 223.656 615.357C223.545 615.289 223.447 615.216 223.358 615.131C223.039 614.829 222.869 614.429 222.873 613.999C222.89 612.922 223.66 612.693 225.186 612.527C222.754 612.429 222.571 612.241 222.261 611.926C222.018 611.684 221.874 611.326 221.882 610.982C221.891 610.416 222.12 610.067 222.55 609.841C222.478 609.79 222.414 609.739 222.354 609.679C222.014 609.356 221.831 608.93 221.84 608.479C221.853 607.854 222.15 607.458 222.712 607.186C222.21 607.096 222.006 606.956 221.806 606.756C221.559 606.509 221.402 606.134 221.406 605.785C221.423 604.777 222.189 604.309 223.532 604.036C221.355 603.973 221.211 603.824 220.904 603.509C220.662 603.266 220.526 602.921 220.53 602.577C220.539 602.206 220.624 601.896 220.832 601.632C220.683 601.551 220.556 601.457 220.445 601.351C220.113 601.036 219.935 600.619 219.943 600.176C219.948 599.819 220.028 599.508 220.224 599.24C219.918 598.908 219.752 598.487 219.761 598.04C219.765 597.704 219.85 597.461 219.994 597.278C219.782 597.168 219.607 597.044 219.463 596.904C219.076 596.538 218.872 596.057 218.88 595.55C218.885 595.265 218.906 595.18 219.573 593.457C219.454 593.401 219.344 593.333 219.238 593.235C218.94 592.976 218.774 592.597 218.783 592.201C218.795 591.495 219.374 590.933 220.079 590.946C220.224 590.946 220.36 590.975 220.488 591.018C220.551 591.01 220.619 591.001 220.675 590.993C221.172 590.92 221.738 590.835 222.227 591.269C222.507 591.516 222.673 591.895 222.669 592.269C222.665 592.563 222.626 592.657 222.018 594.218C221.904 594.516 221.759 594.891 221.636 595.21C224.093 595.904 233.418 595.274 238.598 594.925C247.502 594.325 248.718 594.338 249.479 595.061C249.764 595.329 249.921 595.708 249.913 596.091C249.9 596.729 249.572 597.159 249.032 597.465C249.27 597.78 249.398 598.159 249.39 598.555C249.377 599.253 249.028 599.627 248.416 599.84C248.56 600.096 248.633 600.381 248.628 600.674C248.62 601.223 248.373 601.602 247.961 601.866C248.11 601.938 248.195 602.023 248.297 602.126C248.539 602.368 248.679 602.717 248.671 603.062C248.654 603.917 248.22 604.453 246.783 604.824C247.034 604.926 247.217 605.045 247.357 605.185C247.646 605.471 247.799 605.841 247.791 606.237C247.782 606.828 247.514 607.224 247.013 607.505C247.127 607.573 247.229 607.649 247.319 607.735C247.655 608.054 247.837 608.475 247.829 608.922C247.816 609.633 247.442 610.084 246.655 610.399C246.685 610.428 246.715 610.458 246.745 610.488C246.987 610.731 247.123 611.071 247.115 611.412C247.102 612.054 246.821 612.488 246.09 612.812C246.349 612.922 246.553 613.054 246.719 613.216C247.059 613.535 247.242 613.961 247.234 614.416C247.221 615.267 246.745 615.591 245.809 615.757C245.847 615.791 245.886 615.825 245.924 615.859C246.192 616.127 246.336 616.48 246.332 616.85C246.324 617.267 246.205 617.561 245.971 617.774C246.205 618.029 246.332 618.361 246.328 618.702C246.315 619.531 245.784 619.966 244.759 620.255C245.108 620.361 245.358 620.506 245.55 620.689C245.847 620.978 246.009 621.357 246.005 621.766C245.996 622.217 245.843 622.587 245.55 622.894C245.826 623.204 245.975 623.596 245.967 624.009C245.95 624.975 245.167 625.426 244.04 625.711C244.41 625.834 244.687 625.996 244.899 626.196C245.239 626.519 245.422 626.945 245.414 627.4C245.397 628.281 244.861 628.8 243.415 629.188C243.611 629.281 243.772 629.392 243.908 629.52C244.232 629.83 244.406 630.239 244.402 630.673C244.389 631.486 243.989 631.92 242.765 632.235C243.075 632.35 243.309 632.494 243.492 632.665C243.819 632.98 243.998 633.392 243.989 633.831C243.981 634.358 243.76 634.703 243.411 634.937C243.522 635.154 243.581 635.393 243.577 635.639C243.564 636.41 243.181 636.912 242.042 637.325C242.488 637.38 242.599 637.486 242.794 637.682C243.037 637.925 243.173 638.261 243.169 638.606C243.156 639.308 242.803 639.767 242.05 640.099C242.212 640.176 242.305 640.27 242.42 640.385C242.663 640.627 242.803 640.98 242.799 641.325C242.79 641.857 242.603 642.232 242.14 642.521C242.259 642.593 242.361 642.67 242.45 642.755C242.769 643.061 242.943 643.466 242.935 643.896C242.922 644.619 242.616 645.096 241.353 645.56C241.476 645.615 241.583 645.696 241.706 645.819C241.961 646.066 242.101 646.406 242.093 646.76C242.08 647.377 241.825 647.777 241.225 648.075C241.276 648.117 241.332 648.168 241.391 648.228C241.638 648.475 241.778 648.811 241.77 649.16C241.761 649.598 241.6 649.905 241.34 650.122C241.353 650.134 241.37 650.147 241.383 650.16C241.685 650.449 241.85 650.832 241.842 651.241C241.825 652.186 241.17 652.39 240.243 652.611C240.434 652.696 240.588 652.803 240.715 652.926C241.009 653.207 241.17 653.586 241.162 653.986C241.153 654.433 241.017 654.76 240.673 655.033C240.681 655.041 240.694 655.05 240.702 655.063C241.004 655.348 241.166 655.731 241.157 656.139C241.149 656.659 240.992 656.99 240.537 657.254C240.545 657.263 240.558 657.271 240.566 657.28C240.855 657.548 241.013 657.927 241.009 658.314C240.996 658.927 240.685 659.259 240.213 659.484C240.409 659.723 240.524 660.033 240.515 660.34C240.503 661.153 240.009 661.557 238.678 662.136C239.486 662.174 239.797 662.306 240.099 662.6C240.349 662.846 240.503 663.212 240.494 663.566C240.486 664.021 240.345 664.349 239.996 664.617C240.116 664.821 240.179 665.055 240.175 665.289C240.162 666.068 239.814 666.281 238.143 667.268C238.521 667.298 238.776 667.404 239.027 667.638C239.291 667.885 239.448 668.251 239.439 668.613C239.427 669.26 239.125 669.596 238.121 670.256C238.3 670.328 238.444 670.426 238.576 670.553C238.848 670.813 239.002 671.179 238.997 671.554C238.989 672.03 238.865 672.209 237.947 673.384C238.117 673.439 238.274 673.528 238.423 673.66C238.704 673.907 238.874 674.299 238.865 674.673C238.857 675.213 238.657 675.499 237.849 676.184C237.955 676.384 238.011 676.605 238.006 676.835C238.006 677.005 238.006 677.022 237.688 678.444C237.654 678.593 237.615 678.759 237.581 678.92C237.671 679.107 237.717 679.312 237.717 679.516C237.717 679.656 237.717 679.682 237.518 680.597C237.556 680.627 237.59 680.657 237.628 680.695C237.883 680.942 238.024 681.282 238.019 681.635C238.007 682.372 237.369 682.946 236.633 682.887C236.608 682.887 236.578 682.887 236.544 682.891C236.399 682.899 236.259 682.904 236.123 682.904L236.114 682.938Z" fill="url(#paint35_linear_1347_4558)"/>
<path d="M228.766 656.871C229.153 656.871 234.979 656.067 235.493 655.811C236.008 655.556 238.062 653.369 236.905 651.569C235.748 649.768 229.2 650.539 229.2 650.539L226.649 650.373C226.649 650.373 223.579 649.675 223.043 649.343C221.504 649.79 219.327 650.458 219.327 650.458C217.111 656.156 217.558 661.927 220.798 665.255C221.499 665.978 222.588 666.842 224.242 667.476C224.774 667.719 225.301 667.957 225.832 668.2C226.3 667.787 226.687 667.362 227.01 666.944C229.821 663.323 229.111 658.578 228.766 656.871Z" fill="url(#paint36_linear_1347_4558)"/>
<path d="M92.9016 520.909C92.9016 520.909 82.7602 502.413 54.8916 506.814C54.8916 506.814 59.0842 515.955 61.4399 522.726C62.0225 524.394 62.673 526.445 63.2173 527.467C66.5765 533.791 81.5186 536.382 88.5516 535.727L92.9016 520.913V520.909Z" fill="url(#paint37_linear_1347_4558)"/>
<path opacity="0.74" d="M129.717 534.676C126.37 524.326 115.272 518.653 104.931 521.998C94.5898 525.348 88.9174 536.451 92.2638 546.797C95.6103 557.146 106.708 562.819 117.05 559.474C127.391 556.125 133.063 545.026 129.717 534.676Z" fill="url(#paint38_linear_1347_4558)"/>
<path opacity="0.59" d="M90.4827 522.36C90.4827 522.36 78.7723 508.759 61.4873 510.623C61.4873 510.623 63.945 522.803 66.913 526.488C69.881 530.174 82.242 530.884 85.9372 529.893C89.6365 528.901 93.0467 525.088 90.4827 522.36Z" fill="url(#paint39_linear_1347_4558)"/>
<path opacity="0.48" d="M132.727 531.459C131.668 529.365 130.346 527.905 129.776 528.195C129.206 528.484 129.602 530.416 130.661 532.506C131.719 534.6 133.042 536.059 133.612 535.77C134.181 535.481 133.786 533.548 132.727 531.459Z" fill="#FFFDF7"/>
<path opacity="0.38" d="M120.434 555.661C118.091 555.653 116.187 556.163 116.187 556.806C116.187 557.444 118.083 557.972 120.426 557.981C122.769 557.989 124.674 557.478 124.674 556.836C124.674 556.197 122.777 555.67 120.434 555.661Z" fill="#FFFDF7"/>
<path opacity="0.38" d="M110.773 555.67C109.349 555.666 108.197 556.181 108.192 556.819C108.192 557.457 109.34 557.981 110.765 557.985C112.189 557.989 113.342 557.474 113.346 556.836C113.346 556.198 112.198 555.674 110.773 555.67Z" fill="#FFFDF7"/>
<path opacity="0.38" d="M116.417 559.283C114.724 559.279 113.351 559.739 113.347 560.309C113.347 560.883 114.716 561.352 116.408 561.36C118.101 561.364 119.474 560.905 119.478 560.334C119.478 559.76 118.109 559.292 116.417 559.283Z" fill="#FFFDF7"/>
<path opacity="0.48" d="M140.534 530.186C140.275 528.262 139.697 526.752 139.237 526.811C138.778 526.875 138.617 528.484 138.872 530.407C139.131 532.331 139.709 533.842 140.169 533.782C140.628 533.723 140.79 532.11 140.534 530.186Z" fill="#FFFDF7"/>
<path opacity="0.61" d="M157.888 564.318C157.054 561.739 155.749 560.436 153.393 558.211C150.013 555.019 147.895 552.597 142.367 554.385C135.372 556.649 131.108 563.437 131.754 570.467C131.771 570.667 137.073 572.416 142.329 572.344C144.982 572.306 147.631 571.199 149.562 570.416C150.081 570.208 153.176 570.433 155.217 569.19C157.228 567.965 158.198 565.275 157.888 564.322V564.318Z" fill="url(#paint40_linear_1347_4558)"/>
<path d="M149.315 570.34C149.315 570.34 157.352 571.455 157.832 564.922C158.313 558.389 152.364 560.662 149.851 562.369C147.342 564.075 144.986 566.156 149.315 570.34Z" fill="#3A2413"/>
<path d="M124.662 548.503C124.662 548.503 127.302 533.221 112.25 527.765C104.328 524.892 93.6082 533.31 94.0079 534.502C95.8491 540.009 102.95 554.929 124.662 548.503Z" fill="#391F11"/>
<path d="M124.674 548.614C124.674 548.614 127.127 534.4 113.125 529.318C105.756 526.646 95.7846 534.476 96.1545 535.583C97.8639 540.707 104.472 554.589 124.674 548.609V548.614Z" fill="url(#paint41_linear_1347_4558)"/>
<path d="M121.906 539.66C121.906 534.123 117.42 529.638 111.888 529.638C106.356 529.638 101.87 534.123 101.87 539.66C101.87 545.197 106.356 549.682 111.888 549.682C117.42 549.682 121.906 545.197 121.906 539.66Z" fill="url(#paint42_linear_1347_4558)"/>
<path d="M96.0651 517.853C96.0651 517.853 88.4793 514.627 88.7727 502.613C88.7727 502.613 90.1972 495.013 85.6346 499.868C85.6346 499.868 84.2059 502.039 84.814 506.048C84.814 506.048 75.1956 501.034 77.9042 482.007C77.9042 482.007 81.3059 469.265 74.6768 476.909C74.6768 476.909 72.5125 479.224 72.0873 485.854C72.0873 485.854 69.3744 481.458 67.7161 485.752C66.0577 490.046 69.7954 487.578 72.5168 494.259C75.2339 500.937 82.1989 515.606 91.3113 521.458C100.424 527.305 99.4499 519.551 96.0694 517.862L96.0651 517.853Z" fill="url(#paint43_linear_1347_4558)"/>
<path d="M153.937 538.758C152.87 531.51 148.971 526.084 145.22 526.637C141.47 527.191 139.293 533.51 140.36 540.758C141.423 548.005 145.327 553.432 149.077 552.878C152.827 552.325 155.005 546.005 153.937 538.758Z" fill="#F8C543" fill-opacity="0.21" stroke="#391F11" stroke-width="3" stroke-linecap="round" stroke-linejoin="round"/>
<path d="M139.905 539.37C139.905 539.37 137.269 535.753 132.668 541.089" stroke="#391F11" stroke-width="3" stroke-linecap="round" stroke-linejoin="round"/>
<path d="M132.613 542.83C132.613 534.463 126.435 527.68 118.815 527.68C111.195 527.68 105.017 534.463 105.017 542.83C105.017 551.197 111.195 557.981 118.815 557.981C126.435 557.981 132.613 551.197 132.613 542.83Z" fill="#F8C543" fill-opacity="0.21" stroke="#391F11" stroke-width="3" stroke-linecap="round" stroke-linejoin="round"/>
<path d="M56.7334 614.769C56.7334 614.769 81.4086 607.032 79.8396 645.244C78.2705 683.457 75.5747 677.094 74.703 677.094C74.703 677.094 75.5151 681.699 73.4869 686.189C71.4586 690.679 69.0051 692.432 71.7052 703.331C74.4053 714.23 100.599 670.813 95.9637 637.095C91.3331 603.377 75.158 592.976 67.1214 599.431C59.0848 605.892 55.5683 603.317 56.7334 614.765V614.769Z" fill="url(#paint44_linear_1347_4558)"/>
<path d="M129.445 605.534C129.445 605.534 146.484 659.977 147.138 672.54C147.793 685.103 151.059 602.563 136.334 594.933C136.334 594.933 137.571 601.244 129.445 605.534Z" fill="url(#paint45_linear_1347_4558)"/>
<path d="M57.4601 614.526C57.4601 614.526 50.1082 618.471 44.4443 630.566C38.7762 642.661 35.485 652.683 35.0258 656.709C34.5666 660.731 32.7339 667.846 32.2576 672.842C31.7814 677.839 32.4702 678.107 35.4595 674.345C38.4488 670.583 51.3583 662.867 63.9021 670.587C76.446 678.311 76.3949 679.66 77.2496 673.14C78.1 666.62 84.2019 612.36 57.4644 614.526H57.4601Z" fill="url(#paint46_linear_1347_4558)"/>
<path d="M287.581 738.434C287.581 737.983 287.946 737.617 288.398 737.617C288.845 737.617 289.21 737.983 289.21 738.434C289.21 738.885 288.845 739.25 288.398 739.25C287.946 739.25 287.581 738.885 287.581 738.434Z" fill="#FCCA91"/>
<path opacity="0.0391503" d="M284.917 738.229C284.917 736.304 286.477 734.742 288.403 734.742C290.328 734.742 291.888 736.304 291.888 738.229C291.888 740.156 290.328 741.717 288.403 741.717C286.477 741.717 284.917 740.156 284.917 738.229Z" fill="#F8AC54"/>
<path opacity="0.0329471" d="M282.129 738.448C282.129 734.977 284.944 732.162 288.411 732.162C291.883 732.162 294.694 734.977 294.694 738.448C294.694 741.92 291.883 744.734 288.411 744.734C284.944 744.734 282.129 741.92 282.129 738.448Z" fill="#F8AC54"/>
<g filter="url(#filter0_f_1347_4558)">
<path d="M287.28 738.433C287.28 737.816 287.778 737.316 288.398 737.316C289.014 737.316 289.511 737.816 289.511 738.433C289.511 739.05 289.014 739.55 288.398 739.55C287.778 739.55 287.28 739.05 287.28 738.433Z" fill="#F8AC54"/>
</g>
<g opacity="0.09" filter="url(#filter1_d_1347_4558)">
<path d="M241.287 755.916C352.952 755.916 443.474 665.292 443.474 553.501C443.474 441.71 352.952 351.086 241.287 351.086C129.623 351.086 39.1006 441.71 39.1006 553.501C39.1006 665.292 129.623 755.916 241.287 755.916Z" fill="url(#paint47_linear_1347_4558)"/>
</g>
<g opacity="0.21" filter="url(#filter2_d_1347_4558)">
<path d="M241.288 688.823C315.94 688.823 376.457 628.237 376.457 553.501C376.457 478.764 315.94 418.179 241.288 418.179C166.636 418.179 106.118 478.764 106.118 553.501C106.118 628.237 166.636 688.823 241.288 688.823Z" fill="url(#paint48_linear_1347_4558)" fill-opacity="0.36" shape-rendering="crispEdges"/>
</g>
<g opacity="0.17" filter="url(#filter3_d_1347_4558)">
<path d="M241.288 624.14C280.256 624.14 311.847 592.514 311.847 553.501C311.847 514.488 280.256 482.862 241.288 482.862C202.319 482.862 170.729 514.488 170.729 553.501C170.729 592.514 202.319 624.14 241.288 624.14Z" fill="url(#paint49_linear_1347_4558)"/>
</g>
</g>
<defs>
<filter id="filter0_f_1347_4558" x="281.098" y="731.134" width="14.5968" height="14.5988" filterUnits="userSpaceOnUse" color-interpolation-filters="sRGB">
<feFlood flood-opacity="0" result="BackgroundImageFix"/>
<feBlend mode="normal" in="SourceGraphic" in2="BackgroundImageFix" result="shape"/>
<feGaussianBlur stdDeviation="3.09135" result="effect1_foregroundBlur_1347_4558"/>
</filter>
<filter id="filter1_d_1347_4558" x="35.1006" y="351.086" width="412.374" height="412.83" filterUnits="userSpaceOnUse" color-interpolation-filters="sRGB">
<feFlood flood-opacity="0" result="BackgroundImageFix"/>
<feColorMatrix in="SourceAlpha" type="matrix" values="0 0 0 0 0 0 0 0 0 0 0 0 0 0 0 0 0 0 127 0" result="hardAlpha"/>
<feOffset dy="4"/>
<feGaussianBlur stdDeviation="2"/>
<feComposite in2="hardAlpha" operator="out"/>
<feColorMatrix type="matrix" values="0 0 0 0 0 0 0 0 0 0 0 0 0 0 0 0 0 0 0.25 0"/>
<feBlend mode="normal" in2="BackgroundImageFix" result="effect1_dropShadow_1347_4558"/>
<feBlend mode="normal" in="SourceGraphic" in2="effect1_dropShadow_1347_4558" result="shape"/>
</filter>
<filter id="filter2_d_1347_4558" x="102.118" y="418.179" width="278.339" height="278.644" filterUnits="userSpaceOnUse" color-interpolation-filters="sRGB">
<feFlood flood-opacity="0" result="BackgroundImageFix"/>
<feColorMatrix in="SourceAlpha" type="matrix" values="0 0 0 0 0 0 0 0 0 0 0 0 0 0 0 0 0 0 127 0" result="hardAlpha"/>
<feOffset dy="4"/>
<feGaussianBlur stdDeviation="2"/>
<feComposite in2="hardAlpha" operator="out"/>
<feColorMatrix type="matrix" values="0 0 0 0 0 0 0 0 0 0 0 0 0 0 0 0 0 0 0.25 0"/>
<feBlend mode="normal" in2="BackgroundImageFix" result="effect1_dropShadow_1347_4558"/>
<feBlend mode="normal" in="SourceGraphic" in2="effect1_dropShadow_1347_4558" result="shape"/>
</filter>
<filter id="filter3_d_1347_4558" x="166.729" y="482.862" width="149.118" height="149.277" filterUnits="userSpaceOnUse" color-interpolation-filters="sRGB">
<feFlood flood-opacity="0" result="BackgroundImageFix"/>
<feColorMatrix in="SourceAlpha" type="matrix" values="0 0 0 0 0 0 0 0 0 0 0 0 0 0 0 0 0 0 127 0" result="hardAlpha"/>
<feOffset dy="4"/>
<feGaussianBlur stdDeviation="2"/>
<feComposite in2="hardAlpha" operator="out"/>
<feColorMatrix type="matrix" values="0 0 0 0 0 0 0 0 0 0 0 0 0 0 0 0 0 0 0.25 0"/>
<feBlend mode="normal" in2="BackgroundImageFix" result="effect1_dropShadow_1347_4558"/>
<feBlend mode="normal" in="SourceGraphic" in2="effect1_dropShadow_1347_4558" result="shape"/>
</filter>
<linearGradient id="paint0_linear_1347_4558" x1="599.097" y1="-277.971" x2="331.29" y2="698.336" gradientUnits="userSpaceOnUse">
<stop stop-color="#6633CC"/>
<stop offset="1"/>
</linearGradient>
<linearGradient id="paint1_linear_1347_4558" x1="-324.491" y1="768.202" x2="-279.413" y2="229.692" gradientUnits="userSpaceOnUse">
<stop stop-color="#110C24"/>
<stop offset="1" stop-color="#6633CC"/>
</linearGradient>
<linearGradient id="paint2_linear_1347_4558" x1="181.407" y1="888.277" x2="125.506" y2="254.681" gradientUnits="userSpaceOnUse">
<stop stop-color="#110C24"/>
<stop offset="1" stop-color="#6633CC"/>
</linearGradient>
<radialGradient id="paint3_radial_1347_4558" cx="0" cy="0" r="1" gradientUnits="userSpaceOnUse" gradientTransform="translate(219.971 314.753) rotate(-123.342) scale(454.6 454.628)">
<stop stop-color="#FF9CAA"/>
<stop offset="0.396043" stop-color="#6633CC"/>
<stop offset="1"/>
</radialGradient>
<linearGradient id="paint4_linear_1347_4558" x1="209.574" y1="-89.5189" x2="166.053" y2="381.192" gradientUnits="userSpaceOnUse">
<stop stop-color="#F5C144" stop-opacity="0"/>
<stop offset="1" stop-color="#F8AC54"/>
</linearGradient>
<linearGradient id="paint5_linear_1347_4558" x1="209.574" y1="-89.5189" x2="166.053" y2="381.192" gradientUnits="userSpaceOnUse">
<stop stop-color="#F5C144" stop-opacity="0"/>
<stop offset="1" stop-color="#F8AC54"/>
</linearGradient>
<linearGradient id="paint6_linear_1347_4558" x1="209.574" y1="-89.5189" x2="166.053" y2="381.192" gradientUnits="userSpaceOnUse">
<stop stop-color="#F5C144" stop-opacity="0"/>
<stop offset="1" stop-color="#F8AC54"/>
</linearGradient>
<radialGradient id="paint7_radial_1347_4558" cx="0" cy="0" r="1" gradientUnits="userSpaceOnUse" gradientTransform="translate(260.952 595.881) rotate(-89.2462) scale(104.09 98.9092)">
<stop stop-color="#F8C543"/>
<stop offset="1" stop-color="#F2717C"/>
</radialGradient>
<linearGradient id="paint8_linear_1347_4558" x1="242.203" y1="558.151" x2="243.932" y2="542.763" gradientUnits="userSpaceOnUse">
<stop stop-color="#F8C543"/>
<stop offset="1" stop-color="#F2717C"/>
</linearGradient>
<linearGradient id="paint9_linear_1347_4558" x1="224.089" y1="546.103" x2="226.048" y2="539.073" gradientUnits="userSpaceOnUse">
<stop stop-color="#F8C543"/>
<stop offset="1" stop-color="#F2717C"/>
</linearGradient>
<linearGradient id="paint10_linear_1347_4558" x1="234.749" y1="535.51" x2="236.048" y2="532.221" gradientUnits="userSpaceOnUse">
<stop stop-color="#F8C543"/>
<stop offset="1" stop-color="#F2717C"/>
</linearGradient>
<linearGradient id="paint11_linear_1347_4558" x1="215.448" y1="566.072" x2="218.331" y2="564.027" gradientUnits="userSpaceOnUse">
<stop stop-color="#F8C543"/>
<stop offset="1" stop-color="#F2717C"/>
</linearGradient>
<linearGradient id="paint12_linear_1347_4558" x1="251.923" y1="563.947" x2="251.438" y2="558.287" gradientUnits="userSpaceOnUse">
<stop stop-color="#F8C543"/>
<stop offset="1" stop-color="#F2717C"/>
</linearGradient>
<linearGradient id="paint13_linear_1347_4558" x1="237.046" y1="543.328" x2="240.473" y2="537.42" gradientUnits="userSpaceOnUse">
<stop stop-color="#F8C543"/>
<stop offset="1" stop-color="#F2717C"/>
</linearGradient>
<linearGradient id="paint14_linear_1347_4558" x1="78.2388" y1="813.593" x2="76.9725" y2="831.674" gradientUnits="userSpaceOnUse">
<stop stop-color="#DDA165"/>
<stop offset="1" stop-color="#BE5D28"/>
</linearGradient>
<linearGradient id="paint15_linear_1347_4558" x1="134.925" y1="815.965" x2="135.901" y2="844.503" gradientUnits="userSpaceOnUse">
<stop stop-color="#DDA165"/>
<stop offset="1" stop-color="#BE5D28"/>
</linearGradient>
<linearGradient id="paint16_linear_1347_4558" x1="181.512" y1="779.737" x2="123.635" y2="741.703" gradientUnits="userSpaceOnUse">
<stop stop-color="#3D304E"/>
<stop offset="1" stop-color="#11122E"/>
</linearGradient>
<linearGradient id="paint17_linear_1347_4558" x1="92.1643" y1="813.617" x2="90.8481" y2="705.104" gradientUnits="userSpaceOnUse">
<stop stop-color="#3D2F4E"/>
<stop offset="1" stop-color="#0E163C"/>
</linearGradient>
<linearGradient id="paint18_linear_1347_4558" x1="41.7355" y1="593.12" x2="52.999" y2="622.938" gradientUnits="userSpaceOnUse">
<stop stop-color="#4A2816"/>
<stop offset="1" stop-color="#010101"/>
</linearGradient>
<linearGradient id="paint19_linear_1347_4558" x1="9.4239" y1="665.174" x2="34.3766" y2="678.77" gradientUnits="userSpaceOnUse">
<stop stop-color="#4A2816"/>
<stop offset="1" stop-color="#010101"/>
</linearGradient>
<linearGradient id="paint20_linear_1347_4558" x1="102.108" y1="592.376" x2="108.974" y2="637.902" gradientUnits="userSpaceOnUse">
<stop stop-color="#EDE3DC"/>
<stop offset="1" stop-color="#010101"/>
</linearGradient>
<linearGradient id="paint21_linear_1347_4558" x1="228.905" y1="659.537" x2="241.842" y2="639.046" gradientUnits="userSpaceOnUse">
<stop stop-color="#DEA163"/>
<stop offset="1" stop-color="#CC7A3C"/>
</linearGradient>
<linearGradient id="paint22_linear_1347_4558" x1="171.976" y1="644.611" x2="81.7999" y2="588.44" gradientUnits="userSpaceOnUse">
<stop stop-color="#EDE3DC"/>
<stop offset="1" stop-color="#010101"/>
</linearGradient>
<linearGradient id="paint23_linear_1347_4558" x1="247.01" y1="599.762" x2="109.24" y2="590.832" gradientUnits="userSpaceOnUse">
<stop stop-color="#F8C543"/>
<stop offset="1" stop-color="#F2717C" stop-opacity="0"/>
</linearGradient>
<linearGradient id="paint24_linear_1347_4558" x1="172.844" y1="633.514" x2="127.191" y2="619.189" gradientUnits="userSpaceOnUse">
<stop stop-color="#E5B740"/>
<stop offset="1" stop-color="#743C19"/>
</linearGradient>
<linearGradient id="paint25_linear_1347_4558" x1="162.063" y1="623.915" x2="131.351" y2="664.902" gradientUnits="userSpaceOnUse">
<stop stop-color="#F8C543"/>
<stop offset="1" stop-color="#4D2226" stop-opacity="0.7"/>
</linearGradient>
<linearGradient id="paint26_linear_1347_4558" x1="95.9892" y1="590.422" x2="83.4026" y2="564.1" gradientUnits="userSpaceOnUse">
<stop stop-color="#E5B740"/>
<stop offset="1" stop-color="#743C19"/>
</linearGradient>
<linearGradient id="paint27_linear_1347_4558" x1="103.877" y1="728.789" x2="84.3864" y2="563.057" gradientUnits="userSpaceOnUse">
<stop stop-color="#E5B740"/>
<stop offset="1" stop-color="#743C19"/>
</linearGradient>
<linearGradient id="paint28_linear_1347_4558" x1="140.298" y1="619.988" x2="32.2906" y2="770.546" gradientUnits="userSpaceOnUse">
<stop stop-color="#F8C543"/>
<stop offset="1" stop-color="#291517" stop-opacity="0.78"/>
</linearGradient>
<linearGradient id="paint29_linear_1347_4558" x1="77.3637" y1="748.354" x2="58.2923" y2="750.704" gradientUnits="userSpaceOnUse">
<stop stop-color="#DDA165"/>
<stop offset="1" stop-color="#BE5D28"/>
</linearGradient>
<linearGradient id="paint30_linear_1347_4558" x1="56.9842" y1="690.627" x2="66.2122" y2="573.498" gradientUnits="userSpaceOnUse">
<stop stop-color="#EDE3DC"/>
<stop offset="1" stop-color="#010101"/>
</linearGradient>
<linearGradient id="paint31_linear_1347_4558" x1="147.112" y1="510.639" x2="122.692" y2="510.639" gradientUnits="userSpaceOnUse">
<stop stop-color="#DDA165"/>
<stop offset="1" stop-color="#BE5D28"/>
</linearGradient>
<linearGradient id="paint32_linear_1347_4558" x1="122.701" y1="472.858" x2="122.429" y2="512.666" gradientUnits="userSpaceOnUse">
<stop stop-color="#D59861"/>
<stop offset="0.86" stop-color="#FEDCB9"/>
<stop offset="1" stop-color="#FEDCB9" stop-opacity="0"/>
</linearGradient>
<linearGradient id="paint33_linear_1347_4558" x1="117.314" y1="525.42" x2="125.641" y2="589.697" gradientUnits="userSpaceOnUse">
<stop stop-color="#DDA165"/>
<stop offset="1" stop-color="#BE5D28"/>
</linearGradient>
<linearGradient id="paint34_linear_1347_4558" x1="146.34" y1="539.648" x2="88.9984" y2="513.098" gradientUnits="userSpaceOnUse">
<stop stop-color="#F8C543"/>
<stop offset="1" stop-color="#F2717C" stop-opacity="0"/>
</linearGradient>
<linearGradient id="paint35_linear_1347_4558" x1="233.429" y1="661.865" x2="236.843" y2="592.093" gradientUnits="userSpaceOnUse">
<stop stop-color="#341F12"/>
<stop offset="1" stop-color="#C56B30"/>
</linearGradient>
<linearGradient id="paint36_linear_1347_4558" x1="226.636" y1="657.493" x2="240.311" y2="651.305" gradientUnits="userSpaceOnUse">
<stop stop-color="#DFA163"/>
<stop offset="1" stop-color="#CC7A3C"/>
</linearGradient>
<linearGradient id="paint37_linear_1347_4558" x1="93.4883" y1="525.22" x2="55.8495" y2="516.709" gradientUnits="userSpaceOnUse">
<stop stop-color="#DDA165"/>
<stop offset="1" stop-color="#BE5D28"/>
</linearGradient>
<linearGradient id="paint38_linear_1347_4558" x1="112.785" y1="515.287" x2="110.323" y2="550.146" gradientUnits="userSpaceOnUse">
<stop stop-color="#FBE2A7"/>
<stop offset="1" stop-color="#FBE2A7" stop-opacity="0"/>
</linearGradient>
<linearGradient id="paint39_linear_1347_4558" x1="64.8678" y1="512.917" x2="83.6878" y2="528.328" gradientUnits="userSpaceOnUse">
<stop stop-color="#FBE2A7"/>
<stop offset="1" stop-color="#FBE2A7" stop-opacity="0"/>
</linearGradient>
<linearGradient id="paint40_linear_1347_4558" x1="146.067" y1="548.954" x2="144.137" y2="576.263" gradientUnits="userSpaceOnUse">
<stop stop-color="#FBE2A7"/>
<stop offset="1" stop-color="#FBE2A7" stop-opacity="0"/>
</linearGradient>
<linearGradient id="paint41_linear_1347_4558" x1="124.674" y1="539.421" x2="95.6443" y2="539.421" gradientUnits="userSpaceOnUse">
<stop stop-color="#FCF9F6"/>
<stop offset="1" stop-color="#E5D5AF"/>
</linearGradient>
<linearGradient id="paint42_linear_1347_4558" x1="112.581" y1="535.111" x2="110.388" y2="549.435" gradientUnits="userSpaceOnUse">
<stop stop-color="#010101"/>
<stop offset="1" stop-color="#86644C"/>
</linearGradient>
<linearGradient id="paint43_linear_1347_4558" x1="70.025" y1="476.177" x2="95.3877" y2="521.954" gradientUnits="userSpaceOnUse">
<stop stop-color="#D59861"/>
<stop offset="0.86" stop-color="#FEDCB9"/>
<stop offset="1" stop-color="#FEDCB9" stop-opacity="0"/>
</linearGradient>
<linearGradient id="paint44_linear_1347_4558" x1="80.9621" y1="599.542" x2="72.3331" y2="659.239" gradientUnits="userSpaceOnUse">
<stop stop-color="#4A2816"/>
<stop offset="1" stop-color="#010101"/>
</linearGradient>
<linearGradient id="paint45_linear_1347_4558" x1="147.07" y1="634.383" x2="129.445" y2="634.383" gradientUnits="userSpaceOnUse">
<stop stop-color="#4A2816"/>
<stop offset="1" stop-color="#010101"/>
</linearGradient>
<linearGradient id="paint46_linear_1347_4558" x1="58.1477" y1="664.418" x2="76.3673" y2="600.63" gradientUnits="userSpaceOnUse">
<stop stop-color="#E5B740"/>
<stop offset="1" stop-color="#743C19"/>
</linearGradient>
<linearGradient id="paint47_linear_1347_4558" x1="105.933" y1="209.764" x2="327.312" y2="770.697" gradientUnits="userSpaceOnUse">
<stop stop-color="#F8C543"/>
<stop offset="1" stop-color="#F2717C"/>
</linearGradient>
<linearGradient id="paint48_linear_1347_4558" x1="150.79" y1="323.687" x2="298.802" y2="698.717" gradientUnits="userSpaceOnUse">
<stop stop-color="#F8C543"/>
<stop offset="1" stop-color="#F2717C"/>
</linearGradient>
<linearGradient id="paint49_linear_1347_4558" x1="194.052" y1="433.539" x2="271.311" y2="629.295" gradientUnits="userSpaceOnUse">
<stop stop-color="#F8C543"/>
<stop offset="1" stop-color="#F2717C"/>
</linearGradient>
<clipPath id="clip0_1347_4558">
<rect width="375" height="812" fill="white" transform="translate(0 0.691406)"/>
</clipPath>
</defs>
</svg>
