<svg width="45" height="46" viewBox="0 0 45 46" fill="none" xmlns="http://www.w3.org/2000/svg">
<circle cx="22.6473" cy="23.0495" r="22.1613" fill="#FCF7FF"/>
<path d="M17.3712 19.3557L19.4818 17.2451L17.3712 15.1345L15.2606 17.2451L17.3712 19.3557ZM14.2053 25.1598C13.6249 25.1598 13.128 24.9531 12.7147 24.5398C12.3013 24.1265 12.0947 23.6296 12.0947 23.0492V13.5515C12.0947 12.9711 12.3013 12.4742 12.7147 12.0609C13.128 11.6476 13.6249 11.4409 14.2053 11.4409H31.0901C31.6705 11.4409 32.1673 11.6476 32.5807 12.0609C32.994 12.4742 33.2007 12.9711 33.2007 13.5515V23.0492C33.2007 23.6296 32.994 24.1265 32.5807 24.5398C32.1673 24.9531 31.6705 25.1598 31.0901 25.1598H27.6867C27.7923 24.808 27.8626 24.4563 27.8978 24.1045C27.933 23.7527 27.933 23.401 27.8978 23.0492H31.0901V13.5515H14.2053V23.0492H17.3976C17.3624 23.401 17.3624 23.7527 17.3976 24.1045C17.4327 24.4563 17.5031 24.808 17.6086 25.1598H14.2053ZM27.3965 17.7727C27.8362 17.7727 28.21 17.6188 28.5178 17.311C28.8256 17.0032 28.9795 16.6295 28.9795 16.1898C28.9795 15.7501 28.8256 15.3763 28.5178 15.0685C28.21 14.7607 27.8362 14.6068 27.3965 14.6068C26.9568 14.6068 26.5831 14.7607 26.2753 15.0685C25.9675 15.3763 25.8136 15.7501 25.8136 16.1898C25.8136 16.6295 25.9675 17.0032 26.2753 17.311C26.5831 17.6188 26.9568 17.7727 27.3965 17.7727ZM15.2606 34.6575V32.4414C15.2606 31.8258 15.4321 31.2542 15.775 30.7265C16.118 30.1989 16.5709 29.8031 17.1337 29.5393C17.9956 29.1348 18.8926 28.8314 19.8247 28.6291C20.7569 28.4268 21.6979 28.3257 22.6477 28.3257C23.5974 28.3257 24.5384 28.4268 25.4706 28.6291C26.4028 28.8314 27.2998 29.1348 28.1616 29.5393C28.7244 29.8031 29.1773 30.1989 29.5203 30.7265C29.8633 31.2542 30.0348 31.8258 30.0348 32.4414V34.6575H15.2606ZM17.3712 32.5469H27.9242V32.4414C27.9242 32.2303 27.8626 32.0368 27.7395 31.861C27.6164 31.6851 27.4581 31.5532 27.2646 31.4652C26.5259 31.131 25.7696 30.876 24.9957 30.7001C24.2218 30.5242 23.4391 30.4363 22.6477 30.4363C21.8562 30.4363 21.0735 30.5242 20.2996 30.7001C19.5257 30.876 18.7694 31.131 18.0307 31.4652C17.8373 31.5532 17.679 31.6851 17.5559 31.861C17.4327 32.0368 17.3712 32.2303 17.3712 32.4414V32.5469ZM22.6477 27.2704C21.6275 27.2704 20.7569 26.9098 20.0358 26.1887C19.3147 25.4676 18.9541 24.597 18.9541 23.5769C18.9541 22.5567 19.3147 21.6861 20.0358 20.965C20.7569 20.2439 21.6275 19.8833 22.6477 19.8833C23.6678 19.8833 24.5384 20.2439 25.2595 20.965C25.9807 21.6861 26.3412 22.5567 26.3412 23.5769C26.3412 24.597 25.9807 25.4676 25.2595 26.1887C24.5384 26.9098 23.6678 27.2704 22.6477 27.2704ZM22.6477 25.1598C23.0874 25.1598 23.4611 25.0059 23.7689 24.6981C24.0767 24.3903 24.2306 24.0166 24.2306 23.5769C24.2306 23.1371 24.0767 22.7634 23.7689 22.4556C23.4611 22.1478 23.0874 21.9939 22.6477 21.9939C22.208 21.9939 21.8342 22.1478 21.5264 22.4556C21.2186 22.7634 21.0647 23.1371 21.0647 23.5769C21.0647 24.0166 21.2186 24.3903 21.5264 24.6981C21.8342 25.0059 22.208 25.1598 22.6477 25.1598Z" fill="#6633CC"/>
</svg>
